<svg width="19" height="23" viewBox="0 0 19 23" fill="none" xmlns="http://www.w3.org/2000/svg">
<path d="M15.8803 12.1547C15.8694 10.34 16.7091 8.97241 18.4047 7.96398C17.4564 6.6336 16.0216 5.90189 14.1303 5.76087C12.3396 5.62251 10.3804 6.7826 9.66297 6.7826C8.90482 6.7826 7.17114 5.80877 5.80702 5.80877C2.99182 5.85134 0 8.00655 0 12.3915C0 13.6873 0.241846 15.0256 0.725538 16.4039C1.37227 18.2185 3.70377 22.6647 6.13582 22.5928C7.40755 22.5636 8.307 21.7095 9.96188 21.7095C11.5678 21.7095 12.3994 22.5928 13.8178 22.5928C16.2716 22.5582 18.3803 18.5165 18.9944 16.6966C15.7037 15.1773 15.8803 12.2478 15.8803 12.1547ZM13.0244 4.03936C14.4021 2.43759 14.2771 0.979492 14.2363 0.455322C13.0189 0.524502 11.6113 1.26685 10.8097 2.17949C9.92655 3.15865 9.40753 4.3693 9.51895 5.73427C10.8342 5.83271 12.0352 5.17018 13.0244 4.03936Z" fill="white"/>
</svg>
