<svg width="24" height="24" viewBox="0 0 24 24" fill="none" xmlns="http://www.w3.org/2000/svg">
<path d="M17.2453 15.4737C20.0391 13.9397 22.157 12.7708 22.3395 12.68C22.9235 12.3694 23.5266 11.5475 22.3395 10.909C21.9563 10.7082 19.8928 9.57573 17.2453 8.11523L13.5752 11.8218L17.2453 15.4737V15.4737Z" fill="#FFD900"/>
<path d="M13.5752 11.8218L1.88904 23.5996C2.16334 23.636 2.47301 23.5632 2.83811 23.3625C3.60464 22.9429 11.7305 18.5053 17.2453 15.4746L13.5752 11.8218Z" fill="#F43249"/>
<path d="M13.5752 11.8216L17.2453 8.13335C17.2453 8.13335 3.6601 0.719324 2.83815 0.281666C2.52847 0.0982537 2.18145 0.0437724 1.87091 0.0982538L13.5752 11.8216Z" fill="#00EE76"/>
<path d="M13.5752 11.8223L1.87088 0.098877C1.39587 0.2087 0.994446 0.62837 0.994446 1.48664V22.2124C0.994446 22.9979 1.30507 23.5637 1.88904 23.6183L13.5752 11.8223Z" fill="#00D3FF"/>
</svg>
