<svg width="221" height="71" viewBox="0 0 221 71" fill="none" xmlns="http://www.w3.org/2000/svg">
<mask id="mask0_51_76" style="mask-type:alpha" maskUnits="userSpaceOnUse" x="0" y="0" width="221" height="71">
<rect width="221" height="71" fill="#D9D9D9"/>
</mask>
<g mask="url(#mask0_51_76)">
<path d="M113.83 16.5673V17.0763C113.253 17.0932 112.812 17.1611 112.506 17.2798C112.218 17.3816 112.023 17.5852 111.921 17.8905C111.819 18.1789 111.768 18.637 111.768 19.2647V31.8862C111.768 32.4969 111.819 32.9549 111.921 33.2603C112.023 33.5656 112.218 33.7692 112.506 33.871C112.812 33.9728 113.253 34.0406 113.83 34.0746V34.5835C113.439 34.5496 112.947 34.5326 112.354 34.5326C111.777 34.5156 111.192 34.5072 110.598 34.5072C109.936 34.5072 109.317 34.5156 108.74 34.5326C108.163 34.5326 107.697 34.5496 107.341 34.5835V34.0746C107.917 34.0406 108.35 33.9728 108.638 33.871C108.944 33.7692 109.147 33.5656 109.249 33.2603C109.351 32.9549 109.402 32.4969 109.402 31.8862V17.8905L109.504 17.9669L103.269 34.7107H102.862L96.4495 18.1959V31.6317C96.4495 32.2424 96.5004 32.7259 96.6022 33.0821C96.7209 33.4214 96.9415 33.6674 97.2638 33.8201C97.6031 33.9558 98.1035 34.0406 98.7652 34.0746V34.5835C98.4598 34.5496 98.0611 34.5326 97.5692 34.5326C97.0772 34.5156 96.6107 34.5072 96.1696 34.5072C95.7455 34.5072 95.3129 34.5156 94.8718 34.5326C94.4477 34.5326 94.0915 34.5496 93.8031 34.5835V34.0746C94.3799 34.0406 94.8125 33.9558 95.1008 33.8201C95.4062 33.6674 95.6098 33.4214 95.7116 33.0821C95.8133 32.7259 95.8642 32.2424 95.8642 31.6317V19.2647C95.8642 18.637 95.8133 18.1789 95.7116 17.8905C95.6098 17.5852 95.4062 17.3816 95.1008 17.2798C94.8125 17.1611 94.3799 17.0932 93.8031 17.0763V16.5673C94.0915 16.5843 94.4477 16.6012 94.8718 16.6182C95.3129 16.6352 95.7455 16.6437 96.1696 16.6437C96.5428 16.6437 96.9245 16.6352 97.3147 16.6182C97.7218 16.6012 98.0611 16.5843 98.3326 16.5673L104.109 31.7844L103.676 31.9879L109.402 16.6437C109.605 16.6437 109.8 16.6437 109.987 16.6437C110.191 16.6437 110.394 16.6437 110.598 16.6437C111.192 16.6437 111.777 16.6352 112.354 16.6182C112.947 16.6012 113.439 16.5843 113.83 16.5673ZM121.873 21.1223C122.959 21.1223 123.934 21.3598 124.799 21.8348C125.665 22.3098 126.352 23.0562 126.861 24.0741C127.386 25.0919 127.649 26.4151 127.649 28.0437C127.649 29.6723 127.386 30.9955 126.861 32.0134C126.352 33.0143 125.665 33.7522 124.799 34.2272C123.934 34.7022 122.959 34.9397 121.873 34.9397C120.804 34.9397 119.829 34.7022 118.947 34.2272C118.081 33.7522 117.386 33.0143 116.86 32.0134C116.351 30.9955 116.097 29.6723 116.097 28.0437C116.097 26.4151 116.351 25.0919 116.86 24.0741C117.386 23.0562 118.081 22.3098 118.947 21.8348C119.829 21.3598 120.804 21.1223 121.873 21.1223ZM121.873 21.6312C120.906 21.6312 120.109 22.1316 119.481 23.1325C118.87 24.1334 118.565 25.7705 118.565 28.0437C118.565 30.317 118.87 31.954 119.481 32.9549C120.109 33.9388 120.906 34.4308 121.873 34.4308C122.84 34.4308 123.629 33.9388 124.24 32.9549C124.867 31.954 125.181 30.317 125.181 28.0437C125.181 25.7705 124.867 24.1334 124.24 23.1325C123.629 22.1316 122.84 21.6312 121.873 21.6312ZM144.033 21.504V22.0383C143.338 22.0383 142.837 22.1656 142.532 22.42C142.243 22.6745 142.099 23.158 142.099 23.8705V32.217C142.099 32.9295 142.243 33.413 142.532 33.6674C142.837 33.9219 143.338 34.0491 144.033 34.0491V34.5835C143.745 34.5665 143.304 34.5496 142.71 34.5326C142.116 34.4987 141.539 34.4817 140.98 34.4817C140.42 34.4817 139.868 34.4987 139.326 34.5326C138.8 34.5496 138.401 34.5665 138.13 34.5835V34.0491C138.74 34.0491 139.173 33.9219 139.427 33.6674C139.682 33.413 139.809 32.9295 139.809 32.217V23.8705C139.809 23.158 139.682 22.6745 139.427 22.42C139.173 22.1656 138.74 22.0383 138.13 22.0383V21.504C138.401 21.5209 138.8 21.5464 139.326 21.5803C139.868 21.5973 140.42 21.6057 140.98 21.6057C141.539 21.6057 142.116 21.5973 142.71 21.5803C143.304 21.5464 143.745 21.5209 144.033 21.504ZM135.483 21.504V22.0383C134.872 22.0383 134.44 22.1656 134.185 22.42C133.931 22.6745 133.804 23.158 133.804 23.8705V32.217C133.804 32.9295 133.931 33.413 134.185 33.6674C134.44 33.9219 134.872 34.0491 135.483 34.0491V34.5835C135.212 34.5665 134.805 34.5496 134.262 34.5326C133.736 34.4987 133.193 34.4817 132.633 34.4817C132.073 34.4817 131.497 34.4987 130.903 34.5326C130.309 34.5496 129.868 34.5665 129.58 34.5835V34.0491C130.275 34.0491 130.767 33.9219 131.055 33.6674C131.361 33.413 131.514 32.9295 131.514 32.217V23.8705C131.514 23.158 131.361 22.6745 131.055 22.42C130.767 22.1656 130.275 22.0383 129.58 22.0383V21.504C129.868 21.5209 130.309 21.5464 130.903 21.5803C131.497 21.5973 132.073 21.6057 132.633 21.6057C133.193 21.6057 133.736 21.5973 134.262 21.5803C134.805 21.5464 135.212 21.5209 135.483 21.504ZM140.064 23.2852L140.471 23.5651L133.473 33.2348L133.066 32.9295L140.064 23.2852ZM140.089 14.3789C140.479 14.3789 140.802 14.5061 141.056 14.7606C141.31 15.0151 141.438 15.3374 141.438 15.7276C141.438 16.0838 141.327 16.4231 141.107 16.7454C140.886 17.0508 140.598 17.3222 140.242 17.5597C139.885 17.7972 139.427 18.0093 138.868 18.1959C138.308 18.3825 137.604 18.4758 136.755 18.4758C135.924 18.4758 135.22 18.3825 134.643 18.1959C134.084 18.0093 133.626 17.7972 133.269 17.5597C132.913 17.3222 132.625 17.0508 132.404 16.7454C132.184 16.4231 132.073 16.0838 132.073 15.7276C132.073 15.3374 132.201 15.0151 132.455 14.7606C132.709 14.5061 133.032 14.3789 133.422 14.3789C133.812 14.3789 134.143 14.4977 134.414 14.7352C134.686 14.9727 134.822 15.312 134.822 15.753C134.822 16.1093 134.72 16.3977 134.516 16.6182C134.33 16.8387 134.075 16.9829 133.753 17.0508C134.092 17.424 134.559 17.67 135.152 17.7888C135.763 17.9075 136.297 17.9669 136.755 17.9669C137.214 17.9669 137.739 17.9075 138.333 17.7888C138.944 17.67 139.419 17.424 139.758 17.0508C139.436 16.9829 139.173 16.8387 138.969 16.6182C138.783 16.3977 138.689 16.1093 138.689 15.753C138.689 15.312 138.825 14.9727 139.097 14.7352C139.385 14.4977 139.716 14.3789 140.089 14.3789ZM156.705 21.1223C157.299 21.1223 157.714 21.2665 157.952 21.5548C158.206 21.8432 158.334 22.1656 158.334 22.5218C158.334 22.895 158.215 23.2174 157.977 23.4888C157.74 23.7433 157.409 23.8705 156.985 23.8705C156.68 23.8705 156.417 23.8026 156.196 23.6669C155.976 23.5312 155.806 23.3446 155.687 23.1071C155.568 22.8526 155.509 22.5642 155.509 22.2419C155.509 22.208 155.509 22.174 155.509 22.1401C155.509 22.1062 155.509 22.0807 155.509 22.0638C155.322 22.1486 155.153 22.3013 155 22.5218C154.864 22.7424 154.72 23.0392 154.568 23.4124C154.415 23.7857 154.237 24.2437 154.033 24.7866C153.863 25.2446 153.668 25.6857 153.448 26.1098C153.227 26.5339 152.922 26.8901 152.532 27.1785C152.142 27.4669 151.607 27.6535 150.929 27.7384L151.158 27.5602C152.176 27.5263 153.066 27.6366 153.83 27.891C154.61 28.1455 155.221 28.6205 155.662 29.3161C155.95 29.7571 156.188 30.3 156.374 30.9446C156.578 31.5893 156.79 32.1576 157.01 32.6496C157.197 33.0737 157.409 33.4045 157.647 33.642C157.901 33.8625 158.291 33.9982 158.817 34.0491V34.5835C158.546 34.6344 158.274 34.6768 158.003 34.7107C157.731 34.7447 157.477 34.7616 157.239 34.7616C156.476 34.7616 155.916 34.5835 155.56 34.2272C155.204 33.854 154.932 33.3536 154.746 32.7259C154.661 32.4375 154.559 32.0897 154.44 31.6826C154.322 31.2585 154.177 30.8344 154.008 30.4103C153.838 29.9692 153.634 29.5875 153.397 29.2652C153.024 28.7393 152.54 28.4 151.947 28.2473C151.353 28.0777 150.581 28.0098 149.631 28.0437V27.6111C150.564 27.5602 151.285 27.4076 151.794 27.1531C152.303 26.8817 152.693 26.5084 152.964 26.0334C153.236 25.5584 153.482 24.9986 153.702 24.354C153.872 23.879 154.059 23.3955 154.262 22.9035C154.466 22.3946 154.754 21.9705 155.127 21.6312C155.518 21.2919 156.043 21.1223 156.705 21.1223ZM151.412 21.504V22.0383C150.801 22.0383 150.369 22.1656 150.114 22.42C149.86 22.6745 149.733 23.158 149.733 23.8705V32.217C149.733 32.9295 149.86 33.413 150.114 33.6674C150.369 33.9219 150.801 34.0491 151.412 34.0491V34.5835C151.141 34.5665 150.734 34.5496 150.191 34.5326C149.648 34.4987 149.096 34.4817 148.537 34.4817C147.977 34.4817 147.4 34.4987 146.806 34.5326C146.23 34.5496 145.797 34.5665 145.509 34.5835V34.0491C146.204 34.0491 146.696 33.9219 146.984 33.6674C147.29 33.413 147.442 32.9295 147.442 32.217V23.8705C147.442 23.158 147.29 22.6745 146.984 22.42C146.696 22.1656 146.204 22.0383 145.509 22.0383V21.504C145.797 21.5209 146.23 21.5464 146.806 21.5803C147.4 21.5973 147.977 21.6057 148.537 21.6057C149.096 21.6057 149.648 21.5973 150.191 21.5803C150.734 21.5464 151.141 21.5209 151.412 21.504ZM163.684 34.7616C162.989 34.7616 162.386 34.6344 161.877 34.3799C161.369 34.1085 160.978 33.7353 160.707 33.2603C160.452 32.7853 160.325 32.2339 160.325 31.6062C160.325 30.8598 160.495 30.2491 160.834 29.7741C161.19 29.2991 161.64 28.9174 162.183 28.629C162.726 28.3406 163.294 28.1031 163.888 27.9165C164.498 27.7129 165.075 27.5263 165.618 27.3567C166.161 27.1701 166.602 26.958 166.941 26.7205C167.298 26.483 167.476 26.1692 167.476 25.779V24.2013C167.476 23.4888 167.365 22.9459 167.145 22.5727C166.941 22.1995 166.661 21.9535 166.305 21.8348C165.949 21.699 165.55 21.6312 165.109 21.6312C164.685 21.6312 164.227 21.6906 163.735 21.8093C163.26 21.9281 162.878 22.174 162.59 22.5473C162.912 22.6151 163.192 22.7848 163.43 23.0562C163.667 23.3276 163.786 23.6754 163.786 24.0995C163.786 24.5236 163.65 24.8629 163.379 25.1174C163.107 25.3549 162.76 25.4736 162.335 25.4736C161.844 25.4736 161.479 25.3209 161.241 25.0156C161.021 24.6933 160.91 24.337 160.91 23.9468C160.91 23.5058 161.021 23.1495 161.241 22.8781C161.462 22.6066 161.742 22.3522 162.081 22.1147C162.471 21.8432 162.972 21.6142 163.582 21.4276C164.21 21.224 164.914 21.1223 165.694 21.1223C166.39 21.1223 166.984 21.2071 167.476 21.3767C167.968 21.5294 168.375 21.7584 168.697 22.0638C169.138 22.4709 169.427 22.9714 169.562 23.5651C169.698 24.1419 169.766 24.8375 169.766 25.6517V32.7259C169.766 33.15 169.825 33.4554 169.944 33.642C170.08 33.8286 170.283 33.9219 170.555 33.9219C170.741 33.9219 170.919 33.8795 171.089 33.7947C171.259 33.7098 171.462 33.5741 171.7 33.3875L171.98 33.8201C171.623 34.0915 171.284 34.3205 170.962 34.5072C170.64 34.6768 170.207 34.7616 169.664 34.7616C169.172 34.7616 168.765 34.6768 168.443 34.5072C168.12 34.3375 167.874 34.0915 167.705 33.7692C167.552 33.4299 167.476 33.0058 167.476 32.4969C167.018 33.2603 166.466 33.8286 165.822 34.2018C165.194 34.575 164.481 34.7616 163.684 34.7616ZM164.6 33.7438C165.16 33.7438 165.677 33.5826 166.152 33.2603C166.644 32.938 167.086 32.4545 167.476 31.8098V26.8223C167.272 27.1107 166.975 27.3567 166.585 27.5602C166.195 27.7468 165.771 27.9419 165.313 28.1455C164.855 28.3321 164.414 28.5611 163.99 28.8326C163.582 29.087 163.243 29.4263 162.972 29.8504C162.7 30.2745 162.564 30.8259 162.564 31.5045C162.564 32.183 162.743 32.7259 163.099 33.133C163.472 33.5402 163.973 33.7438 164.6 33.7438ZM179.564 16.5673V17.0763C178.987 17.0932 178.546 17.1611 178.241 17.2798C177.952 17.3816 177.757 17.5852 177.656 17.8905C177.554 18.1789 177.503 18.637 177.503 19.2647V31.8862C177.503 32.4969 177.554 32.9549 177.656 33.2603C177.757 33.5656 177.952 33.7692 178.241 33.871C178.546 33.9558 178.987 33.9982 179.564 33.9982H181.422C182.219 33.9982 182.864 33.9134 183.356 33.7438C183.864 33.5741 184.263 33.3112 184.552 32.9549C184.857 32.5817 185.086 32.0897 185.239 31.479C185.391 30.8683 185.51 30.1219 185.595 29.2397H186.18C186.129 29.7656 186.104 30.4612 186.104 31.3263C186.104 31.6487 186.112 32.1152 186.129 32.7259C186.163 33.3196 186.214 33.9388 186.282 34.5835C185.417 34.5496 184.441 34.5326 183.356 34.5326C182.27 34.5156 181.303 34.5072 180.455 34.5072C180.081 34.5072 179.598 34.5072 179.004 34.5072C178.427 34.5072 177.8 34.5156 177.121 34.5326C176.443 34.5326 175.755 34.5411 175.06 34.558C174.364 34.558 173.703 34.5665 173.075 34.5835V34.0746C173.652 34.0406 174.085 33.9728 174.373 33.871C174.678 33.7692 174.882 33.5656 174.984 33.2603C175.085 32.9549 175.136 32.4969 175.136 31.8862V19.2647C175.136 18.637 175.085 18.1789 174.984 17.8905C174.882 17.5852 174.678 17.3816 174.373 17.2798C174.085 17.1611 173.652 17.0932 173.075 17.0763V16.5673C173.431 16.5843 173.898 16.6012 174.475 16.6182C175.051 16.6352 175.671 16.6437 176.332 16.6437C176.926 16.6437 177.511 16.6352 178.088 16.6182C178.682 16.6012 179.174 16.5843 179.564 16.5673ZM190.605 15.1169C191.046 15.1169 191.428 15.278 191.75 15.6003C192.072 15.9227 192.234 16.3044 192.234 16.7454C192.234 17.1865 192.072 17.5682 191.75 17.8905C191.428 18.2129 191.046 18.374 190.605 18.374C190.164 18.374 189.782 18.2129 189.46 17.8905C189.138 17.5682 188.976 17.1865 188.976 16.7454C188.976 16.3044 189.138 15.9227 189.46 15.6003C189.782 15.278 190.164 15.1169 190.605 15.1169ZM191.928 21.1986V32.217C191.928 32.9295 192.072 33.413 192.361 33.6674C192.666 33.9219 193.167 34.0491 193.862 34.0491V34.5835C193.574 34.5665 193.133 34.5496 192.539 34.5326C191.962 34.4987 191.377 34.4817 190.783 34.4817C190.206 34.4817 189.621 34.4987 189.027 34.5326C188.434 34.5496 187.993 34.5665 187.704 34.5835V34.0491C188.4 34.0491 188.892 33.9219 189.18 33.6674C189.485 33.413 189.638 32.9295 189.638 32.217V24.2522C189.638 23.4888 189.502 22.929 189.231 22.5727C188.959 22.1995 188.451 22.0129 187.704 22.0129V21.4785C188.247 21.5294 188.773 21.5548 189.282 21.5548C189.774 21.5548 190.24 21.5294 190.681 21.4785C191.139 21.4107 191.555 21.3173 191.928 21.1986ZM199.154 14.6334V32.217C199.154 32.9295 199.282 33.413 199.536 33.6674C199.79 33.9219 200.223 34.0491 200.834 34.0491V34.5835C200.562 34.5665 200.155 34.5496 199.612 34.5326C199.086 34.4987 198.552 34.4817 198.009 34.4817C197.432 34.4817 196.847 34.4987 196.253 34.5326C195.66 34.5496 195.219 34.5665 194.93 34.5835V34.0491C195.626 34.0491 196.118 33.9219 196.406 33.6674C196.711 33.413 196.864 32.9295 196.864 32.217V17.687C196.864 16.9236 196.728 16.3637 196.457 16.0075C196.186 15.6343 195.677 15.4477 194.93 15.4477V14.9133C195.473 14.9642 195.999 14.9896 196.508 14.9896C197 14.9896 197.466 14.9642 197.907 14.9133C198.365 14.8454 198.781 14.7521 199.154 14.6334ZM207.246 21.4785V21.9874C206.822 22.0214 206.424 22.1401 206.05 22.3437C205.677 22.5303 205.312 22.8102 204.956 23.1834L201.368 26.9495L201.724 26.237L206.457 32.7259C206.746 33.1161 207.017 33.4214 207.272 33.642C207.543 33.8625 207.865 33.9982 208.239 34.0491V34.5835C208.052 34.5665 207.755 34.5496 207.348 34.5326C206.958 34.4987 206.568 34.4817 206.178 34.4817C205.652 34.4817 205.117 34.4987 204.574 34.5326C204.032 34.5496 203.624 34.5665 203.353 34.5835V34.0491C203.692 34.0491 203.93 33.9643 204.065 33.7947C204.201 33.625 204.176 33.4214 203.989 33.1839L201.063 28.9089C200.74 28.4509 200.444 28.154 200.172 28.0183C199.918 27.8826 199.544 27.8062 199.052 27.7893V27.2803C199.595 27.2125 200.036 27.1022 200.376 26.9495C200.715 26.7799 201.037 26.5339 201.343 26.2116L203.226 24.2522C203.769 23.6924 204.04 23.2513 204.04 22.929C204.04 22.5897 203.862 22.3522 203.506 22.2165C203.166 22.0638 202.717 21.9874 202.157 21.9874V21.4785C202.598 21.4955 203.09 21.5209 203.633 21.5548C204.193 21.5718 204.659 21.5803 205.032 21.5803C205.321 21.5803 205.601 21.5803 205.872 21.5803C206.144 21.5633 206.398 21.5464 206.636 21.5294C206.873 21.5124 207.077 21.4955 207.246 21.4785ZM214.613 21.1223C216.106 21.1223 217.268 21.5803 218.099 22.4964C218.947 23.3955 219.371 24.8035 219.371 26.7205H210.389L210.363 26.237H216.928C216.962 25.4058 216.894 24.6424 216.725 23.9468C216.555 23.2343 216.284 22.666 215.91 22.2419C215.554 21.8178 215.088 21.6057 214.511 21.6057C213.731 21.6057 213.035 21.9959 212.424 22.7763C211.831 23.5566 211.474 24.795 211.356 26.4915L211.432 26.5933C211.398 26.8477 211.372 27.1276 211.356 27.433C211.339 27.7384 211.33 28.0437 211.33 28.3491C211.33 29.5027 211.517 30.4951 211.89 31.3263C212.263 32.1576 212.747 32.7938 213.34 33.2348C213.951 33.6589 214.579 33.871 215.223 33.871C215.732 33.871 216.216 33.7947 216.674 33.642C217.132 33.4723 217.556 33.2009 217.946 32.8277C218.336 32.4545 218.676 31.954 218.964 31.3263L219.473 31.5299C219.286 32.0897 218.981 32.6326 218.557 33.1585C218.133 33.6844 217.598 34.117 216.954 34.4563C216.309 34.7786 215.563 34.9397 214.714 34.9397C213.493 34.9397 212.441 34.6598 211.559 34.1C210.694 33.5402 210.024 32.7683 209.549 31.7844C209.091 30.7835 208.862 29.6384 208.862 28.3491C208.862 26.8562 209.099 25.5754 209.574 24.5067C210.049 23.4209 210.719 22.5897 211.585 22.0129C212.45 21.4191 213.459 21.1223 214.613 21.1223Z" fill="#FFA553"/>
<path d="M94.1584 39.4007H98.6518V40.1358H95.0313V42.0655H97.2183C97.8677 42.0655 98.3639 42.234 98.7069 42.5709C99.0561 42.9078 99.2307 43.3918 99.2307 44.0228C99.2307 44.6476 99.0561 45.1285 98.7069 45.4655C98.3639 45.7963 97.8677 45.9617 97.2183 45.9617H94.1584V39.4007ZM96.9335 45.2265C97.8891 45.2265 98.3669 44.8253 98.3669 44.0228C98.3669 43.208 97.8891 42.8006 96.9335 42.8006H95.0313V45.2265H96.9335ZM102.252 46.0627C101.872 46.0627 101.538 46.0015 101.251 45.879C100.969 45.7564 100.733 45.5849 100.543 45.3644C100.353 45.1438 100.209 44.8804 100.111 44.5741C100.019 44.2678 99.9732 43.934 99.9732 43.5725C99.9732 43.2172 100.028 42.8895 100.139 42.5893C100.249 42.283 100.402 42.0196 100.598 41.799C100.8 41.5785 101.036 41.407 101.306 41.2844C101.581 41.1619 101.881 41.1007 102.206 41.1007C102.629 41.1007 102.978 41.1895 103.254 41.3671C103.536 41.5387 103.759 41.7592 103.925 42.0288C104.096 42.2983 104.212 42.5924 104.274 42.9109C104.341 43.2295 104.369 43.5327 104.356 43.8206H100.8C100.794 44.0289 100.819 44.228 100.874 44.4179C100.929 44.6017 101.018 44.7671 101.14 44.9141C101.263 45.055 101.419 45.1683 101.609 45.2541C101.799 45.3399 102.022 45.3828 102.28 45.3828C102.61 45.3828 102.88 45.3062 103.088 45.153C103.303 44.9999 103.444 44.7671 103.511 44.4547H104.283C104.179 44.9938 103.949 45.3981 103.594 45.6676C103.238 45.931 102.791 46.0627 102.252 46.0627ZM103.529 43.1314C103.517 42.9477 103.474 42.7731 103.401 42.6077C103.333 42.4423 103.238 42.3014 103.116 42.185C102.999 42.0625 102.859 41.9675 102.693 41.9001C102.534 41.8266 102.356 41.7898 102.16 41.7898C101.958 41.7898 101.774 41.8266 101.609 41.9001C101.45 41.9675 101.312 42.0625 101.195 42.185C101.079 42.3075 100.987 42.4515 100.92 42.6169C100.852 42.7761 100.813 42.9477 100.8 43.1314H103.529ZM105.194 41.2109H105.975V41.8542H105.993C106.122 41.5907 106.324 41.4008 106.6 41.2844C106.875 41.1619 107.178 41.1007 107.509 41.1007C107.877 41.1007 108.195 41.1681 108.465 41.3028C108.741 41.4376 108.967 41.6214 109.145 41.8542C109.329 42.0808 109.467 42.3442 109.558 42.6444C109.65 42.9446 109.696 43.2632 109.696 43.6001C109.696 43.9431 109.65 44.2648 109.558 44.5649C109.473 44.859 109.338 45.1193 109.154 45.346C108.976 45.5665 108.75 45.7411 108.474 45.8698C108.205 45.9984 107.889 46.0627 107.528 46.0627C107.405 46.0627 107.273 46.0505 107.133 46.026C106.992 46.0015 106.851 45.9617 106.71 45.9065C106.569 45.8514 106.434 45.7779 106.305 45.686C106.183 45.588 106.079 45.4685 105.993 45.3276H105.975V47.7719H105.194V41.2109ZM107.445 45.3828C107.708 45.3828 107.932 45.3307 108.116 45.2265C108.3 45.1224 108.447 44.9846 108.557 44.813C108.667 44.6415 108.747 44.4455 108.796 44.2249C108.845 44.0044 108.869 43.7777 108.869 43.545C108.869 43.3244 108.839 43.11 108.777 42.9017C108.722 42.6873 108.633 42.4974 108.511 42.332C108.394 42.1666 108.241 42.0349 108.051 41.9369C107.868 41.8389 107.65 41.7898 107.399 41.7898C107.136 41.7898 106.912 41.8419 106.728 41.9461C106.544 42.0502 106.394 42.188 106.278 42.3596C106.162 42.525 106.076 42.7149 106.021 42.9293C105.972 43.1437 105.947 43.3612 105.947 43.5817C105.947 43.8145 105.975 44.0412 106.03 44.2617C106.085 44.4761 106.171 44.666 106.287 44.8314C106.41 44.9968 106.566 45.1316 106.756 45.2357C106.946 45.3338 107.175 45.3828 107.445 45.3828ZM112.635 46.0627C112.255 46.0627 111.921 46.0015 111.633 45.879C111.351 45.7564 111.115 45.5849 110.925 45.3644C110.736 45.1438 110.592 44.8804 110.494 44.5741C110.402 44.2678 110.356 43.934 110.356 43.5725C110.356 43.2172 110.411 42.8895 110.521 42.5893C110.631 42.283 110.785 42.0196 110.981 41.799C111.183 41.5785 111.419 41.407 111.688 41.2844C111.964 41.1619 112.264 41.1007 112.589 41.1007C113.011 41.1007 113.361 41.1895 113.636 41.3671C113.918 41.5387 114.142 41.7592 114.307 42.0288C114.479 42.2983 114.595 42.5924 114.656 42.9109C114.724 43.2295 114.751 43.5327 114.739 43.8206H111.183C111.177 44.0289 111.201 44.228 111.256 44.4179C111.311 44.6017 111.4 44.7671 111.523 44.9141C111.645 45.055 111.802 45.1683 111.991 45.2541C112.181 45.3399 112.405 45.3828 112.662 45.3828C112.993 45.3828 113.263 45.3062 113.471 45.153C113.685 44.9999 113.826 44.7671 113.894 44.4547H114.665C114.561 44.9938 114.332 45.3981 113.976 45.6676C113.621 45.931 113.174 46.0627 112.635 46.0627ZM113.912 43.1314C113.9 42.9477 113.857 42.7731 113.783 42.6077C113.716 42.4423 113.621 42.3014 113.498 42.185C113.382 42.0625 113.241 41.9675 113.076 41.9001C112.916 41.8266 112.739 41.7898 112.543 41.7898C112.341 41.7898 112.157 41.8266 111.991 41.9001C111.832 41.9675 111.694 42.0625 111.578 42.185C111.462 42.3075 111.37 42.4515 111.302 42.6169C111.235 42.7761 111.195 42.9477 111.183 43.1314H113.912ZM117.037 43.1682L115.227 41.2109H116.192L118.167 43.4163V41.2109H118.949V43.4163L120.924 41.2109H121.889L120.079 43.1682L122.156 45.9617H121.191L119.564 43.6644L118.949 44.2617V45.9617H118.167V44.2617L117.552 43.6644L115.925 45.9617H114.96L117.037 43.1682ZM124.767 46.0627C124.387 46.0627 124.053 46.0015 123.765 45.879C123.484 45.7564 123.248 45.5849 123.058 45.3644C122.868 45.1438 122.724 44.8804 122.626 44.5741C122.534 44.2678 122.488 43.934 122.488 43.5725C122.488 43.2172 122.543 42.8895 122.654 42.5893C122.764 42.283 122.917 42.0196 123.113 41.799C123.315 41.5785 123.551 41.407 123.821 41.2844C124.096 41.1619 124.396 41.1007 124.721 41.1007C125.144 41.1007 125.493 41.1895 125.769 41.3671C126.05 41.5387 126.274 41.7592 126.439 42.0288C126.611 42.2983 126.727 42.5924 126.789 42.9109C126.856 43.2295 126.884 43.5327 126.871 43.8206H123.315C123.309 44.0289 123.334 44.228 123.389 44.4179C123.444 44.6017 123.533 44.7671 123.655 44.9141C123.778 45.055 123.934 45.1683 124.124 45.2541C124.314 45.3399 124.537 45.3828 124.795 45.3828C125.125 45.3828 125.395 45.3062 125.603 45.153C125.818 44.9999 125.959 44.7671 126.026 44.4547H126.798C126.694 44.9938 126.464 45.3981 126.109 45.6676C125.753 45.931 125.306 46.0627 124.767 46.0627ZM126.044 43.1314C126.032 42.9477 125.989 42.7731 125.916 42.6077C125.848 42.4423 125.753 42.3014 125.631 42.185C125.514 42.0625 125.374 41.9675 125.208 41.9001C125.049 41.8266 124.871 41.7898 124.675 41.7898C124.473 41.7898 124.289 41.8266 124.124 41.9001C123.965 41.9675 123.827 42.0625 123.71 42.185C123.594 42.3075 123.502 42.4515 123.435 42.6169C123.367 42.7761 123.327 42.9477 123.315 43.1314H126.044ZM127.681 41.2109H128.802L130.245 45.0611H130.263L131.706 41.2109H132.827V45.9617H132.046V42.1942L130.612 45.9617H129.896L128.462 42.1942V45.9617H127.681V41.2109ZM137.714 41.9001H136.014V41.2109H140.195V41.9001H138.495V45.9617H137.714V41.9001ZM142.868 46.0627C142.488 46.0627 142.154 46.0015 141.866 45.879C141.584 45.7503 141.345 45.5757 141.149 45.3552C140.953 45.1285 140.806 44.8651 140.708 44.5649C140.61 44.2648 140.561 43.9401 140.561 43.5909C140.561 43.2417 140.61 42.917 140.708 42.6169C140.806 42.3106 140.953 42.0471 141.149 41.8266C141.345 41.5999 141.584 41.4223 141.866 41.2936C142.154 41.165 142.488 41.1007 142.868 41.1007C143.241 41.1007 143.572 41.165 143.86 41.2936C144.148 41.4223 144.39 41.5999 144.586 41.8266C144.782 42.0471 144.929 42.3106 145.027 42.6169C145.125 42.917 145.174 43.2417 145.174 43.5909C145.174 43.9401 145.125 44.2648 145.027 44.5649C144.929 44.8651 144.782 45.1285 144.586 45.3552C144.39 45.5757 144.148 45.7503 143.86 45.879C143.572 46.0015 143.241 46.0627 142.868 46.0627ZM142.868 45.3828C143.07 45.3828 143.26 45.3429 143.437 45.2633C143.621 45.1837 143.78 45.0703 143.915 44.9233C144.05 44.7702 144.154 44.5833 144.228 44.3628C144.307 44.1361 144.347 43.8788 144.347 43.5909C144.347 43.303 144.307 43.0487 144.228 42.8282C144.154 42.6015 144.05 42.4116 143.915 42.2585C143.78 42.1053 143.621 41.9889 143.437 41.9093C143.26 41.8297 143.07 41.7898 142.868 41.7898C142.665 41.7898 142.472 41.8297 142.289 41.9093C142.111 41.9889 141.955 42.1053 141.82 42.2585C141.685 42.4116 141.578 42.6015 141.498 42.8282C141.425 43.0487 141.388 43.303 141.388 43.5909C141.388 43.8788 141.425 44.1361 141.498 44.3628C141.578 44.5833 141.685 44.7702 141.82 44.9233C141.955 45.0703 142.111 45.1837 142.289 45.2633C142.472 45.3429 142.665 45.3828 142.868 45.3828ZM146.27 44.9417V45.9617H146.812C146.818 46.0352 146.812 46.1148 146.793 46.2006C146.781 46.2863 146.754 46.3691 146.711 46.4487C146.668 46.5345 146.61 46.611 146.536 46.6784C146.469 46.7519 146.383 46.8071 146.279 46.8438V47.3033C146.634 47.1991 146.891 47.0215 147.051 46.7703C147.21 46.5191 147.29 46.219 147.29 45.8698V44.9417H146.27ZM154.059 43.9676C154.016 43.986 153.939 44.0075 153.829 44.032C153.725 44.0565 153.602 44.081 153.461 44.1055C153.327 44.13 153.183 44.1514 153.029 44.1698C152.876 44.1882 152.729 44.1974 152.588 44.1974C152.111 44.1974 151.734 44.0871 151.458 43.8666C151.182 43.6399 151.045 43.2968 151.045 42.8374V41.2109H151.826V42.7087C151.826 43.0212 151.902 43.2387 152.055 43.3612C152.215 43.4776 152.441 43.5358 152.735 43.5358C152.852 43.5358 152.977 43.5296 153.112 43.5174C153.247 43.499 153.376 43.4776 153.498 43.4531C153.627 43.4286 153.74 43.4041 153.838 43.3795C153.936 43.355 154.01 43.3367 154.059 43.3244V41.2109H154.84V45.9617H154.059V43.9676ZM157.168 41.9001H155.469V41.2109H159.65V41.9001H157.95V45.9617H157.168V41.9001ZM162.323 46.0627C161.943 46.0627 161.609 46.0015 161.321 45.879C161.039 45.7503 160.8 45.5757 160.604 45.3552C160.408 45.1285 160.261 44.8651 160.163 44.5649C160.065 44.2648 160.016 43.9401 160.016 43.5909C160.016 43.2417 160.065 42.917 160.163 42.6169C160.261 42.3106 160.408 42.0471 160.604 41.8266C160.8 41.5999 161.039 41.4223 161.321 41.2936C161.609 41.165 161.943 41.1007 162.323 41.1007C162.696 41.1007 163.027 41.165 163.315 41.2936C163.603 41.4223 163.845 41.5999 164.041 41.8266C164.237 42.0471 164.384 42.3106 164.482 42.6169C164.58 42.917 164.629 43.2417 164.629 43.5909C164.629 43.9401 164.58 44.2648 164.482 44.5649C164.384 44.8651 164.237 45.1285 164.041 45.3552C163.845 45.5757 163.603 45.7503 163.315 45.879C163.027 46.0015 162.696 46.0627 162.323 46.0627ZM162.323 45.3828C162.525 45.3828 162.715 45.3429 162.892 45.2633C163.076 45.1837 163.235 45.0703 163.37 44.9233C163.505 44.7702 163.609 44.5833 163.683 44.3628C163.762 44.1361 163.802 43.8788 163.802 43.5909C163.802 43.303 163.762 43.0487 163.683 42.8282C163.609 42.6015 163.505 42.4116 163.37 42.2585C163.235 42.1053 163.076 41.9889 162.892 41.9093C162.715 41.8297 162.525 41.7898 162.323 41.7898C162.12 41.7898 161.927 41.8297 161.744 41.9093C161.566 41.9889 161.41 42.1053 161.275 42.2585C161.14 42.4116 161.033 42.6015 160.953 42.8282C160.88 43.0487 160.843 43.303 160.843 43.5909C160.843 43.8788 160.88 44.1361 160.953 44.3628C161.033 44.5833 161.14 44.7702 161.275 44.9233C161.41 45.0703 161.566 45.1837 161.744 45.2633C161.927 45.3429 162.12 45.3828 162.323 45.3828ZM168.107 41.2109H170.304C170.512 41.2109 170.711 41.2262 170.901 41.2569C171.097 41.2875 171.271 41.3457 171.425 41.4315C171.578 41.5111 171.7 41.6275 171.792 41.7807C171.884 41.9338 171.93 42.1298 171.93 42.3688C171.93 42.626 171.869 42.8343 171.746 42.9936C171.624 43.1529 171.452 43.2846 171.232 43.3887V43.3979C171.507 43.4531 171.725 43.5817 171.884 43.7839C172.05 43.986 172.132 44.2464 172.132 44.5649C172.132 44.7671 172.095 44.9539 172.022 45.1255C171.955 45.297 171.857 45.444 171.728 45.5665C171.599 45.6891 171.446 45.7871 171.268 45.8606C171.091 45.928 170.898 45.9617 170.69 45.9617H168.107V41.2109ZM170.542 45.3001C170.8 45.3001 170.993 45.2265 171.121 45.0795C171.256 44.9264 171.324 44.7365 171.324 44.5098C171.324 44.2954 171.253 44.1239 171.112 43.9952C170.971 43.8666 170.735 43.8022 170.405 43.8022H168.879V45.3001H170.542ZM170.221 43.159C170.558 43.159 170.791 43.0978 170.919 42.9752C171.054 42.8527 171.121 42.6904 171.121 42.4882C171.121 42.2922 171.057 42.1421 170.928 42.0379C170.8 41.9277 170.564 41.8725 170.221 41.8725H168.879V43.159H170.221ZM174.384 46.0627C174.169 46.0627 173.967 46.0382 173.777 45.9892C173.587 45.9464 173.419 45.8728 173.272 45.7687C173.131 45.6584 173.018 45.5206 172.932 45.3552C172.852 45.1837 172.813 44.9784 172.813 44.7395C172.813 44.47 172.859 44.2494 172.95 44.0779C173.042 43.9064 173.162 43.7686 173.309 43.6644C173.462 43.5541 173.633 43.4714 173.823 43.4163C174.019 43.3612 174.218 43.3152 174.421 43.2785C174.635 43.2356 174.837 43.205 175.027 43.1866C175.223 43.1621 175.395 43.1314 175.542 43.0947C175.689 43.0518 175.805 42.9936 175.891 42.9201C175.977 42.8405 176.02 42.7271 176.02 42.5801C176.02 42.4086 175.986 42.2707 175.918 42.1666C175.857 42.0625 175.774 41.9828 175.67 41.9277C175.572 41.8725 175.459 41.8358 175.33 41.8174C175.208 41.799 175.085 41.7898 174.963 41.7898C174.632 41.7898 174.356 41.8542 174.136 41.9828C173.915 42.1053 173.796 42.3412 173.777 42.6904H172.996C173.009 42.3963 173.07 42.1482 173.18 41.9461C173.29 41.7439 173.437 41.5816 173.621 41.459C173.805 41.3304 174.013 41.2385 174.246 41.1834C174.485 41.1282 174.739 41.1007 175.009 41.1007C175.223 41.1007 175.434 41.116 175.643 41.1466C175.857 41.1772 176.05 41.2416 176.222 41.3396C176.393 41.4315 176.531 41.5632 176.635 41.7347C176.739 41.9062 176.791 42.1298 176.791 42.4055V44.8498C176.791 45.0336 176.801 45.1683 176.819 45.2541C176.843 45.3399 176.917 45.3828 177.04 45.3828C177.095 45.3828 177.174 45.3674 177.278 45.3368V45.9433C177.144 46.0229 176.957 46.0627 176.718 46.0627C176.516 46.0627 176.353 46.0076 176.231 45.8973C176.114 45.781 176.056 45.5941 176.056 45.3368C175.842 45.5941 175.591 45.781 175.303 45.8973C175.021 46.0076 174.715 46.0627 174.384 46.0627ZM174.558 45.3828C174.816 45.3828 175.036 45.3491 175.22 45.2817C175.404 45.2082 175.554 45.1193 175.67 45.0152C175.787 44.9049 175.873 44.7885 175.928 44.666C175.983 44.5374 176.01 44.4179 176.01 44.3076V43.5082C175.912 43.5878 175.784 43.643 175.624 43.6736C175.465 43.7042 175.297 43.7318 175.119 43.7563C174.947 43.7808 174.773 43.8053 174.595 43.8298C174.418 43.8543 174.258 43.8972 174.117 43.9585C173.977 44.0197 173.86 44.1085 173.768 44.2249C173.682 44.3352 173.64 44.4884 173.64 44.6844C173.64 44.813 173.664 44.9233 173.713 45.0152C173.768 45.101 173.836 45.1714 173.915 45.2265C174.001 45.2817 174.099 45.3215 174.209 45.346C174.32 45.3705 174.436 45.3828 174.558 45.3828ZM178.005 41.2109H179.126L180.569 45.0611H180.587L182.03 41.2109H183.151V45.9617H182.37V42.1942L180.937 45.9617H180.22L178.786 42.1942V45.9617H178.005V41.2109ZM186.329 45.2725H186.889C186.957 45.1438 187.024 44.9693 187.091 44.7487C187.165 44.5221 187.229 44.2739 187.284 44.0044C187.346 43.7287 187.395 43.4377 187.431 43.1314C187.468 42.8251 187.487 42.525 187.487 42.2309V41.2109H190.923V45.2725H191.567V47.4043H190.822V45.9617H187.073V47.4043H186.329V45.2725ZM190.142 45.2725V41.9001H188.249V42.3044C188.249 42.6046 188.231 42.9048 188.194 43.205C188.164 43.499 188.121 43.7777 188.066 44.0412C188.01 44.3046 187.949 44.5435 187.882 44.7579C187.82 44.9723 187.759 45.1438 187.698 45.2725H190.142ZM194.35 46.0627C193.97 46.0627 193.636 46.0015 193.348 45.879C193.066 45.7503 192.827 45.5757 192.631 45.3552C192.435 45.1285 192.288 44.8651 192.19 44.5649C192.092 44.2648 192.043 43.9401 192.043 43.5909C192.043 43.2417 192.092 42.917 192.19 42.6169C192.288 42.3106 192.435 42.0471 192.631 41.8266C192.827 41.5999 193.066 41.4223 193.348 41.2936C193.636 41.165 193.97 41.1007 194.35 41.1007C194.723 41.1007 195.054 41.165 195.342 41.2936C195.63 41.4223 195.872 41.5999 196.068 41.8266C196.264 42.0471 196.411 42.3106 196.509 42.6169C196.607 42.917 196.656 43.2417 196.656 43.5909C196.656 43.9401 196.607 44.2648 196.509 44.5649C196.411 44.8651 196.264 45.1285 196.068 45.3552C195.872 45.5757 195.63 45.7503 195.342 45.879C195.054 46.0015 194.723 46.0627 194.35 46.0627ZM194.35 45.3828C194.552 45.3828 194.742 45.3429 194.919 45.2633C195.103 45.1837 195.262 45.0703 195.397 44.9233C195.532 44.7702 195.636 44.5833 195.71 44.3628C195.789 44.1361 195.829 43.8788 195.829 43.5909C195.829 43.303 195.789 43.0487 195.71 42.8282C195.636 42.6015 195.532 42.4116 195.397 42.2585C195.262 42.1053 195.103 41.9889 194.919 41.9093C194.742 41.8297 194.552 41.7898 194.35 41.7898C194.147 41.7898 193.954 41.8297 193.771 41.9093C193.593 41.9889 193.437 42.1053 193.302 42.2585C193.167 42.4116 193.06 42.6015 192.98 42.8282C192.907 43.0487 192.87 43.303 192.87 43.5909C192.87 43.8788 192.907 44.1361 192.98 44.3628C193.06 44.5833 193.167 44.7702 193.302 44.9233C193.437 45.0703 193.593 45.1837 193.771 45.2633C193.954 45.3429 194.147 45.3828 194.35 45.3828ZM197.605 41.2109H198.386V41.8542H198.404C198.533 41.5907 198.735 41.4008 199.01 41.2844C199.286 41.1619 199.589 41.1007 199.92 41.1007C200.288 41.1007 200.606 41.1681 200.876 41.3028C201.151 41.4376 201.378 41.6214 201.556 41.8542C201.74 42.0808 201.877 42.3442 201.969 42.6444C202.061 42.9446 202.107 43.2632 202.107 43.6001C202.107 43.9431 202.061 44.2648 201.969 44.5649C201.884 44.859 201.749 45.1193 201.565 45.346C201.387 45.5665 201.161 45.7411 200.885 45.8698C200.615 45.9984 200.3 46.0627 199.939 46.0627C199.816 46.0627 199.684 46.0505 199.543 46.026C199.403 46.0015 199.262 45.9617 199.121 45.9065C198.98 45.8514 198.845 45.7779 198.716 45.686C198.594 45.588 198.49 45.4685 198.404 45.3276H198.386V47.7719H197.605V41.2109ZM199.856 45.3828C200.119 45.3828 200.343 45.3307 200.527 45.2265C200.71 45.1224 200.857 44.9846 200.968 44.813C201.078 44.6415 201.158 44.4455 201.207 44.2249C201.256 44.0044 201.28 43.7777 201.28 43.545C201.28 43.3244 201.25 43.11 201.188 42.9017C201.133 42.6873 201.044 42.4974 200.922 42.332C200.805 42.1666 200.652 42.0349 200.462 41.9369C200.279 41.8389 200.061 41.7898 199.81 41.7898C199.546 41.7898 199.323 41.8419 199.139 41.9461C198.955 42.0502 198.805 42.188 198.689 42.3596C198.572 42.525 198.487 42.7149 198.432 42.9293C198.383 43.1437 198.358 43.3612 198.358 43.5817C198.358 43.8145 198.386 44.0412 198.441 44.2617C198.496 44.4761 198.582 44.666 198.698 44.8314C198.821 44.9968 198.977 45.1316 199.167 45.2357C199.357 45.3338 199.586 45.3828 199.856 45.3828ZM205.073 46.0627C204.693 46.0627 204.359 46.0015 204.072 45.879C203.79 45.7503 203.551 45.5757 203.355 45.3552C203.159 45.1285 203.012 44.8651 202.914 44.5649C202.816 44.2648 202.767 43.9401 202.767 43.5909C202.767 43.2417 202.816 42.917 202.914 42.6169C203.012 42.3106 203.159 42.0471 203.355 41.8266C203.551 41.5999 203.79 41.4223 204.072 41.2936C204.359 41.165 204.693 41.1007 205.073 41.1007C205.447 41.1007 205.778 41.165 206.066 41.2936C206.353 41.4223 206.595 41.5999 206.791 41.8266C206.988 42.0471 207.135 42.3106 207.233 42.6169C207.331 42.917 207.38 43.2417 207.38 43.5909C207.38 43.9401 207.331 44.2648 207.233 44.5649C207.135 44.8651 206.988 45.1285 206.791 45.3552C206.595 45.5757 206.353 45.7503 206.066 45.879C205.778 46.0015 205.447 46.0627 205.073 46.0627ZM205.073 45.3828C205.275 45.3828 205.465 45.3429 205.643 45.2633C205.827 45.1837 205.986 45.0703 206.121 44.9233C206.255 44.7702 206.36 44.5833 206.433 44.3628C206.513 44.1361 206.553 43.8788 206.553 43.5909C206.553 43.303 206.513 43.0487 206.433 42.8282C206.36 42.6015 206.255 42.4116 206.121 42.2585C205.986 42.1053 205.827 41.9889 205.643 41.9093C205.465 41.8297 205.275 41.7898 205.073 41.7898C204.871 41.7898 204.678 41.8297 204.494 41.9093C204.317 41.9889 204.16 42.1053 204.026 42.2585C203.891 42.4116 203.784 42.6015 203.704 42.8282C203.63 43.0487 203.594 43.303 203.594 43.5909C203.594 43.8788 203.63 44.1361 203.704 44.3628C203.784 44.5833 203.891 44.7702 204.026 44.9233C204.16 45.0703 204.317 45.1837 204.494 45.2633C204.678 45.3429 204.871 45.3828 205.073 45.3828ZM208.319 41.2109H211.572V41.9001H209.1V45.9617H208.319V41.2109ZM214.244 46.0627C213.864 46.0627 213.531 46.0015 213.243 45.879C212.961 45.7503 212.722 45.5757 212.526 45.3552C212.33 45.1285 212.183 44.8651 212.085 44.5649C211.987 44.2648 211.938 43.9401 211.938 43.5909C211.938 43.2417 211.987 42.917 212.085 42.6169C212.183 42.3106 212.33 42.0471 212.526 41.8266C212.722 41.5999 212.961 41.4223 213.243 41.2936C213.531 41.165 213.864 41.1007 214.244 41.1007C214.618 41.1007 214.949 41.165 215.237 41.2936C215.525 41.4223 215.767 41.5999 215.963 41.8266C216.159 42.0471 216.306 42.3106 216.404 42.6169C216.502 42.917 216.551 43.2417 216.551 43.5909C216.551 43.9401 216.502 44.2648 216.404 44.5649C216.306 44.8651 216.159 45.1285 215.963 45.3552C215.767 45.5757 215.525 45.7503 215.237 45.879C214.949 46.0015 214.618 46.0627 214.244 46.0627ZM214.244 45.3828C214.446 45.3828 214.636 45.3429 214.814 45.2633C214.998 45.1837 215.157 45.0703 215.292 44.9233C215.427 44.7702 215.531 44.5833 215.604 44.3628C215.684 44.1361 215.724 43.8788 215.724 43.5909C215.724 43.303 215.684 43.0487 215.604 42.8282C215.531 42.6015 215.427 42.4116 215.292 42.2585C215.157 42.1053 214.998 41.9889 214.814 41.9093C214.636 41.8297 214.446 41.7898 214.244 41.7898C214.042 41.7898 213.849 41.8297 213.665 41.9093C213.488 41.9889 213.331 42.1053 213.197 42.2585C213.062 42.4116 212.955 42.6015 212.875 42.8282C212.802 43.0487 212.765 43.303 212.765 43.5909C212.765 43.8788 212.802 44.1361 212.875 44.3628C212.955 44.5833 213.062 44.7702 213.197 44.9233C213.331 45.0703 213.488 45.1837 213.665 45.2633C213.849 45.3429 214.042 45.3828 214.244 45.3828Z" fill="#FFA553"/>
<path d="M5.31406 34.2116C4.24461 34.5681 1.78485 35.1742 0.501506 34.7464L2.1057 36.3506L5.31406 34.2116Z" fill="#FFA553"/>
<path fill-rule="evenodd" clip-rule="evenodd" d="M13.8697 20.8434C13.8697 20.8434 12.2718 22.0976 11.1617 22.5656C12.7344 22.749 14.5618 22.9823 13.8697 22.9823C12.8002 22.9823 13.8697 26.1907 13.8697 25.1213C13.8697 24.2657 15.6522 24.0518 16.5434 24.0518L16.0086 26.1907L18.1476 25.656C21.8907 39.0242 18.6823 47.5799 14.9392 50.7882C12.5718 52.8174 21.3559 40.6284 16.0086 32.0727C16.5434 37.9547 11.1961 36.3506 12.8003 33.1422C11.1961 33.1422 7.98771 35.5271 7.98771 35.5271C8.14041 35.6175 8.31799 35.7136 8.52244 35.8158C11.9447 37.527 10.6614 39.7372 9.5919 40.6284L10.1007 43.1725C10.12 43.2072 10.129 43.2501 10.1266 43.302C9.95492 47.0451 9.5919 55.9398 18.1476 57.0092C19.217 55.4051 24.0296 47.6868 24.0296 37.42C24.0296 27.1532 19.3952 19.9522 17.0781 17.6351L25.534 11.031L17.0781 14.9614C16.2225 14.9614 13.8697 18.1698 13.8697 20.8434ZM16.5434 38.4895C16.8087 36.3671 13.335 45.4409 11.7308 44.9062L12.8003 49.184C14.4045 47.5799 16.0086 42.7673 16.5434 38.4895ZM16.5434 51.8577C22.5323 44.5854 21.7124 31.8945 20.2865 26.7254C25.4199 33.1422 21.274 53.4619 19.217 54.5313L16.5434 51.8577Z" fill="#FFA553"/>
<path d="M17.0781 14.9614V15.4961H17.1963L17.3035 15.4463L17.0781 14.9614ZM13.8697 20.8434L14.1999 21.2641L14.4044 21.1035V20.8434H13.8697ZM8.52244 22.9823L8.90055 23.3604L9.13423 23.1268L9.02972 22.8132L8.52244 22.9823ZM5.31407 26.1907L4.93596 25.8126C4.82292 25.9256 4.76639 26.0833 4.78185 26.2424C4.79731 26.4015 4.88315 26.5454 5.01583 26.6345L5.31407 26.1907ZM5.31406 34.2116L5.61068 34.6566L5.14497 33.7044L5.31406 34.2116ZM9.5919 40.6284L9.24957 40.2176L9.23094 40.2331L9.21379 40.2503L9.5919 40.6284ZM18.1476 57.0092L18.0812 57.5398C18.2822 57.565 18.4801 57.4744 18.5925 57.3059L18.1476 57.0092ZM8.52244 35.8158L8.76157 35.3376L8.52244 35.8158ZM12.8003 33.1422L13.2785 33.3813C13.3614 33.2156 13.3526 33.0187 13.2551 32.8611C13.1577 32.7034 12.9856 32.6075 12.8003 32.6075V33.1422ZM7.98771 35.5271L7.66871 35.0979L7.02348 35.5775L7.71525 35.9872L7.98771 35.5271ZM16.0086 32.0727L16.4621 31.7893C16.3309 31.5794 16.0727 31.487 15.8381 31.5659C15.6035 31.6449 15.4537 31.8746 15.4761 32.1211L16.0086 32.0727ZM14.9392 50.7882L15.2872 51.1942L15.2872 51.1942L14.9392 50.7882ZM18.1476 25.656L18.6625 25.5118L18.5223 25.0111L18.0179 25.1372L18.1476 25.656ZM11.7308 44.9062L11.8999 44.3989C11.7148 44.3372 11.5107 44.3813 11.3675 44.5139C11.2243 44.6465 11.1647 44.8466 11.2121 45.0359L11.7308 44.9062ZM16.5434 38.4895L17.074 38.5558L16.5434 38.4895ZM12.8003 49.184L12.2815 49.3137C12.3282 49.5006 12.4719 49.6479 12.6575 49.6994C12.8432 49.7508 13.0422 49.6984 13.1784 49.5622L12.8003 49.184ZM16.0086 26.1907L15.4899 26.061L15.2737 26.9256L16.1383 26.7095L16.0086 26.1907ZM16.5434 24.0518L17.0621 24.1815L17.2282 23.5171H16.5434V24.0518ZM25.534 11.031L25.8632 11.4524C26.0774 11.2851 26.132 10.9838 25.9902 10.7519C25.8483 10.5201 25.5551 10.4315 25.3086 10.5461L25.534 11.031ZM17.0781 17.6351L16.7489 17.2136L16.2725 17.5857L16.7 18.0132L17.0781 17.6351ZM20.2865 26.7254L20.704 26.3914L19.771 26.8676L20.2865 26.7254ZM16.5434 51.8577L16.1306 51.5178L15.822 51.8925L16.1653 52.2358L16.5434 51.8577ZM19.217 54.5313L18.8389 54.9094L19.116 55.1865L19.4637 55.0058L19.217 54.5313ZM17.1137 14.4279C15.6994 14.3336 13.5585 14.6099 11.8891 15.7954C11.0449 16.3949 10.3215 17.2277 9.88683 18.3531C9.45302 19.476 9.31939 20.8569 9.59916 22.5355L10.6541 22.3597C10.3991 20.83 10.5329 19.6486 10.8844 18.7384C11.2351 17.8307 11.8152 17.1596 12.5083 16.6674C13.9135 15.6694 15.7832 15.411 17.0425 15.495L17.1137 14.4279ZM14.4044 20.8434C14.4044 19.6438 14.9406 18.2718 15.6092 17.1788C15.9403 16.6377 16.2898 16.1883 16.5949 15.8817C16.748 15.7278 16.8793 15.6207 16.9815 15.5558C17.0961 15.4829 17.1221 15.4961 17.0781 15.4961V14.4267C16.8202 14.4267 16.5855 14.5402 16.4077 14.6532C16.2175 14.7742 16.0245 14.9387 15.8368 15.1273C15.4601 15.5058 15.061 16.0256 14.6969 16.6207C13.9752 17.8004 13.335 19.3694 13.335 20.8434H14.4044ZM10.8491 17.1344C10.0019 16.8167 8.74969 16.8444 7.98742 17.8627C7.25061 18.847 7.14733 20.548 8.01515 23.1514L9.02972 22.8132C8.18642 20.2833 8.43964 19.0432 8.84359 18.5036C9.22208 17.9979 9.89488 17.9187 10.4736 18.1357L10.8491 17.1344ZM8.14432 22.6042L4.93596 25.8126L5.69218 26.5688L8.90055 23.3604L8.14432 22.6042ZM5.31407 26.1907C5.01583 26.6345 5.01572 26.6345 5.01561 26.6344C5.01558 26.6344 5.01548 26.6343 5.01542 26.6343C5.01531 26.6342 5.01523 26.6341 5.01517 26.6341C5.01505 26.634 5.01503 26.634 5.01511 26.6341C5.01528 26.6342 5.01584 26.6346 5.01679 26.6352C5.01868 26.6365 5.0221 26.6389 5.02693 26.6422C5.0366 26.649 5.05183 26.6598 5.07167 26.6743C5.11144 26.7034 5.1691 26.747 5.23695 26.8025C5.37465 26.915 5.54485 27.0687 5.69236 27.2424C5.84428 27.4214 5.94469 27.5896 5.98405 27.7302C6.01752 27.8498 6.00604 27.9352 5.94346 28.0258L6.82358 28.6334C7.09589 28.2389 7.11817 27.8144 7.01392 27.442C6.91555 27.0906 6.70673 26.7848 6.50756 26.5502C6.30399 26.3105 6.08125 26.1114 5.91377 25.9745C5.82904 25.9052 5.75605 25.8499 5.70332 25.8113C5.67691 25.792 5.65543 25.7767 5.63995 25.7659C5.6322 25.7605 5.62594 25.7562 5.62129 25.753C5.61897 25.7514 5.61705 25.7501 5.61554 25.7491C5.61479 25.7486 5.61415 25.7481 5.61361 25.7477C5.61334 25.7476 5.61309 25.7474 5.61288 25.7473C5.61277 25.7472 5.61262 25.7471 5.61257 25.7471C5.61244 25.747 5.61231 25.7469 5.31407 26.1907ZM5.94346 28.0258C5.89445 28.0968 5.75788 28.2466 5.51445 28.4816C5.28254 28.7055 4.98486 28.9775 4.64408 29.2836C3.9681 29.8908 3.12416 30.6308 2.34722 31.3487C1.57383 32.0632 0.834653 32.7847 0.368273 33.3646C0.144232 33.6432 -0.0638813 33.9451 -0.152209 34.2286C-0.197108 34.3727 -0.234112 34.5839 -0.151769 34.8028C-0.0592108 35.0488 0.138338 35.189 0.332409 35.2537L0.670602 34.2391C0.704254 34.2503 0.802158 34.3011 0.8492 34.4262C0.886027 34.5241 0.857638 34.5826 0.86884 34.5467C0.892715 34.4701 0.986752 34.3021 1.20167 34.0348C1.6132 33.5231 2.29915 32.8491 3.07296 32.1342C3.84321 31.4225 4.66855 30.6992 5.35876 30.0792C5.70108 29.7717 6.01072 29.489 6.25723 29.2511C6.49221 29.0242 6.70514 28.805 6.82358 28.6334L5.94346 28.0258ZM0.332409 35.2537C1.10542 35.5113 2.15288 35.4454 3.07086 35.3014C4.01346 35.1535 4.92476 34.9051 5.48316 34.7189L5.14497 33.7044C4.63391 33.8747 3.7806 34.1075 2.90513 34.2448C2.00503 34.386 1.18094 34.4092 0.670602 34.2391L0.332409 35.2537ZM5.01745 33.7667L1.80908 35.9056L2.40231 36.7955L5.61068 34.6566L5.01745 33.7667ZM2.48381 35.9724L0.879615 34.3683L0.123396 35.1245L1.72759 36.7287L2.48381 35.9724ZM1.66078 36.0539C1.25831 36.6576 0.861277 37.6664 1.10408 38.6928C1.36092 39.7785 2.28105 40.6887 4.11492 41.1471L4.3743 40.1096C2.78591 39.7125 2.2801 39.0185 2.14481 38.4466C1.99548 37.8153 2.24012 37.1129 2.55062 36.6472L1.66078 36.0539ZM4.11492 41.1471C5.86584 41.5849 7.17174 41.6837 8.10641 41.6162C8.5737 41.5825 8.95532 41.5067 9.25634 41.4064C9.54721 41.3094 9.79898 41.1775 9.97001 41.0065L9.21379 40.2503C9.21395 40.2501 9.19472 40.2685 9.14218 40.2974C9.09145 40.3254 9.01812 40.3585 8.91815 40.3918C8.71787 40.4586 8.42662 40.5209 8.02943 40.5496C7.23514 40.6069 6.04564 40.5275 4.3743 40.1096L4.11492 41.1471ZM3.72585 40.4987C3.53623 41.2572 3.38851 42.4347 3.58499 43.5055C3.78271 44.5831 4.36844 45.6902 5.74393 45.9653L5.95367 44.9166C5.19025 44.7639 4.79564 44.1777 4.63688 43.3125C4.47687 42.4404 4.59652 41.4255 4.76338 40.7581L3.72585 40.4987ZM5.74393 45.9653C7.39849 46.2962 8.52032 45.1988 9.19293 44.4269C9.36133 44.2337 9.52717 44.0299 9.65098 43.8838C9.78807 43.7221 9.88192 43.6211 9.95005 43.5645C10.0441 43.4865 9.96328 43.5966 9.78649 43.5586C9.59429 43.5173 9.57651 43.3679 9.63081 43.5023L10.6224 43.1017C10.543 42.9052 10.3749 42.5912 10.0114 42.5131C9.66331 42.4382 9.39034 42.6393 9.26714 42.7415C9.11804 42.8652 8.96959 43.0337 8.83514 43.1924C8.68741 43.3667 8.55247 43.5341 8.38666 43.7243C7.72246 44.4865 6.97274 45.1204 5.95367 44.9166L5.74393 45.9653ZM9.59244 43.2775C9.50704 45.1395 9.36388 48.3961 10.3579 51.3298C10.858 52.806 11.6525 54.2223 12.9043 55.3413C14.1602 56.464 15.8462 57.2605 18.0812 57.5398L18.2139 56.4786C16.1711 56.2233 14.6941 55.5069 13.6171 54.544C12.5361 53.5776 11.8279 52.3358 11.3708 50.9867C10.4503 48.2699 10.5745 45.2076 10.6608 43.3265L9.59244 43.2775ZM9.93422 41.0392C10.5267 40.5454 11.2427 39.6402 11.276 38.5459C11.3115 37.3803 10.5757 36.2446 8.76157 35.3376L8.2833 36.2941C9.89145 37.0982 10.225 37.9232 10.2071 38.5133C10.1869 39.1746 9.72655 39.8201 9.24957 40.2176L9.93422 41.0392ZM8.76157 35.3376C8.56592 35.2397 8.3998 35.1496 8.26018 35.067L7.71525 35.9872C7.88102 36.0853 8.07005 36.1875 8.2833 36.2941L8.76157 35.3376ZM7.98771 35.5271C8.30672 35.9562 8.30668 35.9562 8.30665 35.9563C8.30666 35.9563 8.30665 35.9563 8.30666 35.9563C8.30669 35.9562 8.30677 35.9562 8.3069 35.9561C8.30715 35.9559 8.3076 35.9556 8.30823 35.9551C8.30951 35.9541 8.31154 35.9526 8.31432 35.9506C8.31987 35.9465 8.3284 35.9402 8.33974 35.9319C8.36244 35.9153 8.39641 35.8907 8.44049 35.859C8.52868 35.7957 8.65718 35.7047 8.81662 35.5953C9.13603 35.3762 9.57714 35.0848 10.0657 34.7942C10.556 34.5027 11.0847 34.2176 11.5806 34.007C12.0897 33.7908 12.5099 33.6769 12.8003 33.6769V32.6075C12.2886 32.6075 11.7062 32.7917 11.1625 33.0227C10.6057 33.2592 10.0315 33.5703 9.51911 33.875C9.00509 34.1807 8.54384 34.4855 8.21155 34.7135C8.04515 34.8277 7.91045 34.923 7.81692 34.9902C7.77014 35.0237 7.73362 35.0503 7.70853 35.0686C7.69599 35.0778 7.6863 35.0849 7.67961 35.0898C7.67627 35.0923 7.67368 35.0942 7.67186 35.0956C7.67094 35.0963 7.67023 35.0968 7.6697 35.0972C7.66944 35.0974 7.66922 35.0975 7.66906 35.0977C7.66898 35.0977 7.66889 35.0978 7.66885 35.0978C7.66877 35.0979 7.66871 35.0979 7.98771 35.5271ZM12.322 32.903C11.8568 33.8335 11.8669 34.7187 12.2265 35.4042C12.5794 36.0769 13.2462 36.5048 13.9701 36.55C14.712 36.5964 15.4594 36.2393 15.9577 35.4607C16.4456 34.6983 16.681 33.5623 16.5412 32.0243L15.4761 32.1211C15.6037 33.5241 15.3711 34.3933 15.0569 34.8842C14.7532 35.3589 14.3643 35.5031 14.0368 35.4827C13.6912 35.4611 13.3553 35.2539 13.1735 34.9074C12.9984 34.5735 12.9417 34.055 13.2785 33.3813L12.322 32.903ZM15.5552 32.3561C18.0963 36.4219 17.3042 41.4037 16.0819 45.2373C15.4746 47.1422 14.7776 48.7151 14.3649 49.72C14.2627 49.9689 14.1748 50.1904 14.1117 50.3729C14.0561 50.5337 13.9937 50.7333 13.9902 50.9066C13.9887 50.9764 13.9899 51.2051 14.1758 51.3841C14.3993 51.5991 14.6696 51.5498 14.7735 51.5186C14.8862 51.4848 14.9831 51.4251 15.0508 51.3789C15.1259 51.3276 15.2052 51.2645 15.2872 51.1942L14.5912 50.3822C14.5252 50.4388 14.4784 50.4747 14.4475 50.4958C14.4092 50.522 14.4204 50.508 14.4662 50.4943C14.503 50.4832 14.725 50.4283 14.9173 50.6134C14.9991 50.6921 15.0327 50.7784 15.0463 50.8299C15.0597 50.8802 15.0596 50.9171 15.0594 50.9285C15.059 50.946 15.0623 50.8962 15.1224 50.7226C15.1749 50.5707 15.2529 50.3729 15.3542 50.1263C15.7555 49.1491 16.4765 47.5204 17.1009 45.5622C18.3419 41.6697 19.2683 36.2792 16.4621 31.7893L15.5552 32.3561ZM15.2872 51.1942C19.2506 47.797 22.4354 38.9866 18.6625 25.5118L17.6326 25.8002C21.3459 39.0618 18.1139 47.3627 14.5912 50.3822L15.2872 51.1942ZM11.5617 45.4135C12.026 45.5683 12.4506 45.342 12.7373 45.1191C13.0429 44.8815 13.3434 44.5331 13.6273 44.148C14.1994 43.3718 14.7912 42.3238 15.3097 41.3547C15.8403 40.3626 16.2834 39.4748 16.5922 38.9389C16.6677 38.8079 16.728 38.7109 16.7736 38.6456C16.7964 38.6129 16.8104 38.5957 16.8163 38.589C16.8276 38.5761 16.8063 38.6045 16.7551 38.6354C16.7153 38.6595 16.5109 38.7696 16.2725 38.6425C16.0685 38.5338 16.0312 38.3451 16.0289 38.3346C16.0175 38.2837 16.0297 38.2875 16.0128 38.4231L17.074 38.5558C17.0902 38.4261 17.1064 38.2521 17.0725 38.1007C17.0588 38.0399 17.0037 37.8203 16.7755 37.6987C16.513 37.5588 16.2782 37.6741 16.202 37.7201C16.1145 37.773 16.0508 37.8401 16.0143 37.8815C15.9722 37.9292 15.9328 37.9817 15.8969 38.0331C15.825 38.1359 15.7468 38.264 15.6656 38.4049C15.3476 38.9567 14.8718 39.906 14.3666 40.8502C13.8493 41.8174 13.2885 42.805 12.7664 43.5135C12.5032 43.8706 12.2712 44.1268 12.0809 44.2748C11.8715 44.4376 11.8366 44.3778 11.8999 44.3989L11.5617 45.4135ZM16.0128 38.4231C15.75 40.5251 15.2237 42.7615 14.5673 44.6651C13.9025 46.5932 13.1321 48.096 12.4222 48.8059L13.1784 49.5622C14.0726 48.6679 14.9064 46.9624 15.5784 45.0137C16.2588 43.0405 16.802 40.7317 17.074 38.5558L16.0128 38.4231ZM13.319 49.0544L12.2496 44.7765L11.2121 45.0359L12.2815 49.3137L13.319 49.0544ZM18.0179 25.1372L15.879 25.6719L16.1383 26.7095L18.2772 26.1747L18.0179 25.1372ZM16.5274 26.3204L17.0621 24.1815L16.0246 23.9221L15.4899 26.061L16.5274 26.3204ZM16.5434 23.5171C16.0685 23.5171 15.346 23.5728 14.7243 23.7518C14.416 23.8406 14.092 23.971 13.8345 24.1706C13.5674 24.3777 13.335 24.6929 13.335 25.1213H14.4044C14.4044 25.1121 14.4056 25.1066 14.4115 25.0963C14.4196 25.0823 14.4405 25.054 14.4898 25.0158C14.5943 24.9347 14.7716 24.8512 15.0203 24.7795C15.5127 24.6377 16.127 24.5865 16.5434 24.5865V23.5171ZM13.335 25.1213C13.335 25.1724 13.3312 25.1795 13.3352 25.1612C13.3371 25.1521 13.3452 25.1162 13.3692 25.0697C13.3917 25.0263 13.45 24.9315 13.5723 24.8656C13.8875 24.6959 14.1307 24.9186 14.1447 24.9318C14.1869 24.9715 14.1989 25.0005 14.1868 24.9785C14.1422 24.8984 14.0553 24.6596 13.993 24.348C13.9311 24.0384 13.912 23.7473 13.9451 23.5599C13.9616 23.4666 13.9824 23.45 13.9694 23.4653C13.9598 23.4765 13.9417 23.4926 13.9155 23.5046C13.9033 23.5101 13.8922 23.5134 13.8834 23.5153C13.8791 23.5161 13.8757 23.5166 13.8733 23.5168C13.8722 23.5169 13.8713 23.517 13.8706 23.517C13.8703 23.5171 13.8701 23.5171 13.8699 23.5171C13.8698 23.5171 13.8697 23.5171 13.8697 23.5171V22.4476C13.5826 22.4476 13.3327 22.5639 13.156 22.7709C12.9967 22.9575 12.9256 23.1832 12.8919 23.374C12.8248 23.7547 12.8725 24.1988 12.9443 24.5577C13.0157 24.9145 13.1293 25.2773 13.2519 25.4979C13.2815 25.5512 13.3332 25.6365 13.4114 25.7102C13.4614 25.7573 13.737 25.9915 14.0794 25.8072C14.2153 25.734 14.2859 25.6253 14.3191 25.5611C14.3539 25.4938 14.3712 25.4301 14.3808 25.3858C14.3998 25.297 14.4044 25.2038 14.4044 25.1213H13.335ZM9.79832 22.0255L4.98578 25.7686L5.64236 26.6128L10.4549 22.8697L9.79832 22.0255ZM17.3035 15.4463L25.7594 11.5159L25.3086 10.5461L16.8527 14.4765L17.3035 15.4463ZM25.2049 10.6096L16.7489 17.2136L17.4072 18.0565L25.8632 11.4524L25.2049 10.6096ZM16.7 18.0132C18.924 20.2371 23.4948 27.3048 23.4948 37.42H24.5643C24.5643 27.0017 19.8665 19.6673 17.4562 17.2569L16.7 18.0132ZM23.4948 37.42C23.4948 47.53 18.7505 55.1408 17.7026 56.7126L18.5925 57.3059C19.6835 55.6693 24.5643 47.8436 24.5643 37.42H23.4948ZM19.771 26.8676C20.4664 29.3886 21.0233 33.7912 20.6624 38.4616C20.301 43.1376 19.0258 48.0022 16.1306 51.5178L16.9561 52.1976C20.0499 48.4409 21.3592 43.3239 21.7287 38.544C22.0985 33.7587 21.5325 29.2313 20.8019 26.5832L19.771 26.8676ZM16.1653 52.2358L18.8389 54.9094L19.5951 54.1532L16.9215 51.4796L16.1653 52.2358ZM19.4637 55.0058C19.7116 54.8769 19.9094 54.6454 20.0667 54.4138C20.2327 54.1695 20.3948 53.8626 20.5521 53.5112C20.8674 52.8071 21.1863 51.8725 21.4891 50.7807C22.0954 48.5941 22.651 45.7245 22.9798 42.6912C23.3083 39.6591 23.4124 36.4438 23.106 33.5701C22.8014 30.7132 22.0837 28.1159 20.704 26.3914L19.8689 27.0595C21.056 28.5433 21.745 30.8923 22.0426 33.6835C22.3384 36.4579 22.2399 39.5924 21.9165 42.576C21.5933 45.5584 21.0476 48.3704 20.4585 50.495C20.1635 51.5588 19.8612 52.4373 19.5761 53.0742C19.4332 53.3933 19.3003 53.6389 19.1821 53.8128C19.1233 53.8993 19.0729 53.9611 19.0321 54.0031C18.99 54.0464 18.9687 54.0577 18.9704 54.0569L19.4637 55.0058ZM13.8697 20.8434C13.5396 20.4228 13.5396 20.4228 13.5396 20.4227C13.5396 20.4228 13.5396 20.4227 13.5396 20.4227C13.5396 20.4227 13.5396 20.4228 13.5395 20.4228C13.5394 20.4229 13.5392 20.4231 13.5389 20.4233C13.5383 20.4238 13.5373 20.4245 13.536 20.4256C13.5333 20.4277 13.5291 20.4309 13.5235 20.4353C13.5123 20.444 13.4954 20.4571 13.4733 20.4741C13.4291 20.508 13.3642 20.5574 13.2826 20.6183C13.1194 20.7403 12.8904 20.9077 12.628 21.0891C12.0933 21.4587 11.4547 21.8618 10.954 22.0728L11.3694 23.0583C11.9788 22.8014 12.6942 22.3434 13.236 21.9689C13.5118 21.7783 13.7517 21.6029 13.9228 21.4751C14.0084 21.4111 14.077 21.3589 14.1245 21.3224C14.1483 21.3041 14.1668 21.2898 14.1795 21.2799C14.1859 21.275 14.1908 21.2712 14.1942 21.2685C14.1959 21.2672 14.1972 21.2661 14.1982 21.2654C14.1987 21.265 14.199 21.2647 14.1993 21.2645C14.1995 21.2644 14.1996 21.2643 14.1997 21.2642C14.1997 21.2642 14.1998 21.2641 14.1998 21.2641C14.1998 21.2641 14.1999 21.2641 13.8697 20.8434ZM11.0997 23.0967C11.8857 23.1884 12.7297 23.2919 13.2892 23.3721C13.5798 23.4137 13.7631 23.445 13.8296 23.4617C13.8551 23.4681 13.8208 23.462 13.7726 23.4379C13.7573 23.4303 13.7251 23.4133 13.6883 23.3846C13.6592 23.3618 13.5775 23.2942 13.5266 23.172C13.4608 23.0141 13.4741 22.8304 13.5694 22.6813C13.6431 22.566 13.7394 22.5131 13.7735 22.4957C13.8466 22.4583 13.909 22.4495 13.9111 22.4492C13.9266 22.4465 13.9353 22.4461 13.9321 22.4463C13.9265 22.4467 13.9078 22.4476 13.8697 22.4476V23.5171C13.9182 23.5171 13.9663 23.5161 14.0092 23.513C14.0303 23.5115 14.0586 23.5089 14.0893 23.5037C14.1067 23.5007 14.1799 23.4889 14.2597 23.4482C14.2971 23.4291 14.3956 23.3745 14.4705 23.2573C14.567 23.1063 14.5805 22.9207 14.5138 22.7607C14.462 22.6364 14.3785 22.5666 14.3464 22.5416C14.3068 22.5106 14.2707 22.4913 14.2506 22.4813C14.183 22.4475 14.1137 22.4303 14.0899 22.4244C13.9592 22.3916 13.7172 22.353 13.4409 22.3134C12.8665 22.2311 12.0105 22.1262 11.2237 22.0344L11.0997 23.0967ZM9.06755 40.7333L9.57637 43.2774L10.6251 43.0677L10.1162 40.5235L9.06755 40.7333ZM9.63353 43.4327C9.59375 43.3612 9.5914 43.3003 9.59244 43.2775L10.6608 43.3265C10.6666 43.2 10.6462 43.0531 10.5679 42.9124L9.63353 43.4327ZM9.57637 43.2774L9.60227 43.4069L10.651 43.1972L10.6251 43.0677L9.57637 43.2774ZM11.2237 22.0344C10.8512 21.991 10.4931 21.9503 10.1857 21.9162L10.0676 22.9791C10.3731 23.013 10.7293 23.0535 11.0997 23.0967L11.2237 22.0344ZM6.24894 45.7957C6.78616 45.1896 7.71558 44.5242 8.55919 44.0754C8.98017 43.8514 9.34916 43.698 9.61147 43.63C9.74656 43.595 9.81724 43.5924 9.83772 43.5941C9.86364 43.5962 9.72175 43.5911 9.63353 43.4327L10.5679 42.9124C10.405 42.6199 10.1114 42.5433 9.92422 42.5281C9.73164 42.5125 9.52797 42.5468 9.34321 42.5947C8.96581 42.6925 8.51313 42.8885 8.05688 43.1313C7.14604 43.6158 6.09882 44.3528 5.44866 45.0862L6.24894 45.7957ZM9.59916 22.5355C9.63191 22.732 9.72228 22.9298 9.90044 23.0756C10.0723 23.2163 10.2705 23.2632 10.4362 23.2719C10.7464 23.2883 11.0834 23.1789 11.3694 23.0583L10.954 22.0728C10.8343 22.1232 10.7318 22.1587 10.6474 22.1802C10.5601 22.2025 10.5112 22.2049 10.4927 22.204C10.4758 22.2031 10.5212 22.2017 10.5779 22.2481C10.6058 22.271 10.6263 22.2976 10.6394 22.3222C10.6518 22.3456 10.6542 22.3606 10.6541 22.3597L9.59916 22.5355Z" fill="#FFA553"/>
<path d="M8.28244 26.7819C8.01829 26.9139 7.91123 27.2351 8.0433 27.4993C8.17537 27.7634 8.49657 27.8705 8.76071 27.7384L8.28244 26.7819ZM10.6605 26.1907L11.1054 26.4873C11.2399 26.2855 11.2218 26.0186 11.0614 25.8368C10.9009 25.655 10.6382 25.604 10.4214 25.7124L10.6605 26.1907ZM13.5327 28.2913C13.8069 28.1817 13.9403 27.8705 13.8306 27.5963C13.7209 27.3221 13.4097 27.1887 13.1355 27.2984L13.5327 28.2913ZM10.1797 27.09L9.68663 26.8831L9.68663 26.8831L10.1797 27.09ZM8.76071 27.7384L10.8996 26.6689L10.4214 25.7124L8.28244 26.7819L8.76071 27.7384ZM10.6605 26.1907C10.2156 25.8941 10.2155 25.8941 10.2155 25.8941C10.2155 25.8942 10.2155 25.8942 10.2154 25.8942C10.2154 25.8943 10.2153 25.8944 10.2153 25.8945C10.2152 25.8946 10.2151 25.8948 10.2149 25.8951C10.2146 25.8955 10.2143 25.896 10.2138 25.8967C10.213 25.8979 10.2119 25.8996 10.2105 25.9017C10.2078 25.9059 10.204 25.9116 10.1993 25.9188C10.19 25.9333 10.1769 25.9538 10.1607 25.9795C10.1284 26.031 10.0838 26.1041 10.0325 26.193C9.93091 26.3692 9.79912 26.615 9.68663 26.8831L10.6728 27.2969C10.762 27.0842 10.8706 26.8804 10.959 26.7271C11.0027 26.6513 11.0404 26.5897 11.0668 26.5476C11.0799 26.5267 11.0902 26.5107 11.0969 26.5004C11.1002 26.4952 11.1026 26.4915 11.1041 26.4893C11.1048 26.4882 11.1053 26.4875 11.1055 26.4871C11.1056 26.4869 11.1057 26.4869 11.1057 26.4869C11.1057 26.4869 11.1056 26.487 11.1056 26.487C11.1056 26.4871 11.1055 26.4871 11.1055 26.4871C11.1055 26.4872 11.1055 26.4872 11.1055 26.4872C11.1054 26.4872 11.1054 26.4873 10.6605 26.1907ZM9.68663 26.8831C9.58131 27.1341 9.47983 27.4349 9.45012 27.731C9.42136 28.0178 9.45092 28.411 9.74765 28.7077L10.5039 27.9515C10.539 27.9866 10.4989 27.9902 10.5142 27.8377C10.5286 27.6946 10.5849 27.5064 10.6728 27.2969L9.68663 26.8831ZM9.74765 28.7077C9.94843 28.9085 10.2115 28.9755 10.4123 28.9998C10.6242 29.0254 10.8539 29.0137 11.0732 28.9867C11.5138 28.9324 12.0058 28.8039 12.4204 28.6777L12.1089 27.6546C11.7151 27.7745 11.2919 27.8822 10.9424 27.9252C10.7666 27.9469 10.6325 27.9492 10.5408 27.9381C10.4379 27.9256 10.4575 27.9051 10.5039 27.9515L9.74765 28.7077ZM12.4204 28.6777C12.7278 28.5841 13.0044 28.488 13.204 28.4155C13.304 28.3791 13.3852 28.3485 13.4418 28.3268C13.4701 28.3159 13.4923 28.3073 13.5077 28.3012C13.5154 28.2982 13.5214 28.2958 13.5256 28.2942C13.5277 28.2933 13.5293 28.2927 13.5305 28.2922C13.5311 28.292 13.5316 28.2918 13.532 28.2916C13.5322 28.2916 13.5323 28.2915 13.5324 28.2915C13.5325 28.2914 13.5326 28.2914 13.5326 28.2914C13.5326 28.2914 13.5327 28.2914 13.5327 28.2914C13.5327 28.2914 13.5327 28.2913 13.3341 27.7949C13.1355 27.2984 13.1356 27.2984 13.1356 27.2984C13.1356 27.2984 13.1356 27.2983 13.1356 27.2983C13.1356 27.2983 13.1356 27.2983 13.1357 27.2983C13.1357 27.2983 13.1356 27.2983 13.1356 27.2984C13.1355 27.2984 13.1353 27.2985 13.135 27.2986C13.1343 27.2989 13.1332 27.2993 13.1317 27.2999C13.1286 27.3011 13.1237 27.3031 13.1172 27.3056C13.1042 27.3107 13.0844 27.3184 13.0587 27.3283C13.0073 27.348 12.9321 27.3764 12.8387 27.4103C12.6515 27.4784 12.3934 27.568 12.1089 27.6546L12.4204 28.6777ZM9.70661 27.3392C9.96192 27.8239 10.7752 28.5518 12.2105 28.6981L12.3189 27.6341C11.1875 27.5189 10.718 26.9646 10.6528 26.8408L9.70661 27.3392Z" fill="#FFA553"/>
<path d="M79.8409 34.2116C80.9104 34.5681 83.3701 35.1742 84.6535 34.7464L83.0493 36.3506L79.8409 34.2116Z" fill="#FFA553"/>
<path fill-rule="evenodd" clip-rule="evenodd" d="M71.2853 20.8434C71.2853 20.8434 72.8832 22.0976 73.9933 22.5656C72.4205 22.749 70.5931 22.9823 71.2853 22.9823C72.3547 22.9823 71.2853 26.1907 71.2853 25.1213C71.2853 24.2657 69.5028 24.0518 68.6116 24.0518L69.1463 26.1907L67.0074 25.656C63.2643 39.0242 66.4727 47.5799 70.2158 50.7882C72.5831 52.8174 63.799 40.6284 69.1463 32.0727C68.6116 37.9547 73.9589 36.3506 72.3547 33.1422C73.9589 33.1422 77.1673 35.5271 77.1673 35.5271C77.0146 35.6175 76.837 35.7136 76.6325 35.8158C73.2103 37.527 74.4936 39.7372 75.5631 40.6284L75.0543 43.1725C75.035 43.2072 75.026 43.2501 75.0284 43.302C75.2001 47.0451 75.5631 55.9398 67.0074 57.0092C65.938 55.4051 61.1254 47.6868 61.1254 37.42C61.1254 27.1532 65.7597 19.9522 68.0769 17.6351L59.2246 11.031L68.0769 14.9614C68.9325 14.9614 71.2853 18.1698 71.2853 20.8434ZM68.6116 38.4895C68.3463 36.3671 71.82 45.4409 73.4242 44.9062L72.3547 49.184C70.7505 47.5799 69.1463 42.7673 68.6116 38.4895ZM68.6116 51.8577C62.6226 44.5854 63.4426 31.8945 64.8685 26.7254C59.7351 33.1422 63.881 53.4619 65.938 54.5313L68.6116 51.8577Z" fill="#FFA553"/>
<path d="M68.0769 14.9614V15.4961H67.9635L67.8599 15.4501L68.0769 14.9614ZM71.2853 20.8434L70.9551 21.2641L70.7505 21.1035V20.8434H71.2853ZM76.6325 22.9823L76.2544 23.3604L76.0207 23.1268L76.1252 22.8132L76.6325 22.9823ZM79.8409 26.1907L80.219 25.8126C80.332 25.9256 80.3886 26.0833 80.3731 26.2424C80.3577 26.4015 80.2718 26.5454 80.1391 26.6345L79.8409 26.1907ZM79.8409 34.2116L79.5443 34.6566L80.01 33.7044L79.8409 34.2116ZM75.5631 40.6284L75.9054 40.2176L75.924 40.2331L75.9412 40.2503L75.5631 40.6284ZM67.0074 57.0092L67.0737 57.5398C66.8728 57.565 66.6748 57.4744 66.5625 57.3059L67.0074 57.0092ZM76.6325 35.8158L76.3934 35.3376L76.6325 35.8158ZM72.3547 33.1422L71.8764 33.3813C71.7935 33.2156 71.8024 33.0187 71.8998 32.8611C71.9973 32.7034 72.1694 32.6075 72.3547 32.6075V33.1422ZM77.1673 35.5271L77.4863 35.0979L78.1315 35.5775L77.4397 35.9872L77.1673 35.5271ZM69.1463 32.0727L68.6929 31.7893C68.8241 31.5794 69.0822 31.487 69.3169 31.5659C69.5515 31.6449 69.7013 31.8746 69.6789 32.1211L69.1463 32.0727ZM70.2158 50.7882L69.8678 51.1942L69.8678 51.1942L70.2158 50.7882ZM67.0074 25.656L66.4925 25.5118L66.6327 25.0111L67.1371 25.1372L67.0074 25.656ZM73.4242 44.9062L73.2551 44.3989C73.4402 44.3372 73.6443 44.3813 73.7875 44.5139C73.9307 44.6465 73.9903 44.8466 73.9429 45.0359L73.4242 44.9062ZM68.6116 38.4895L68.081 38.5558L68.6116 38.4895ZM72.3547 49.184L72.8735 49.3137C72.8267 49.5006 72.6831 49.6479 72.4974 49.6994C72.3118 49.7508 72.1128 49.6984 71.9766 49.5622L72.3547 49.184ZM69.1463 26.1907L69.6651 26.061L69.8812 26.9256L69.0166 26.7095L69.1463 26.1907ZM68.6116 24.0518L68.0928 24.1815L67.9267 23.5171H68.6116V24.0518ZM59.2246 11.031L58.9049 11.4596C58.6866 11.2968 58.6256 10.996 58.7631 10.761C58.9006 10.5259 59.1927 10.4318 59.4416 10.5423L59.2246 11.031ZM68.0769 17.6351L68.3966 17.2065L68.8921 17.5761L68.455 18.0132L68.0769 17.6351ZM64.8685 26.7254L64.4509 26.3914L65.384 26.8676L64.8685 26.7254ZM68.6116 51.8577L69.0244 51.5178L69.333 51.8925L68.9897 52.2358L68.6116 51.8577ZM65.938 54.5313L66.3161 54.9094L66.039 55.1865L65.6913 55.0058L65.938 54.5313ZM68.0413 14.4279C69.4556 14.3336 71.5964 14.6099 73.2659 15.7954C74.1101 16.3949 74.8334 17.2277 75.2681 18.3531C75.702 19.476 75.8356 20.8569 75.5558 22.5355L74.5009 22.3597C74.7559 20.83 74.6221 19.6486 74.2705 18.7384C73.9199 17.8307 73.3398 17.1596 72.6467 16.6674C71.2414 15.6694 69.3718 15.411 68.1125 15.495L68.0413 14.4279ZM70.7505 20.8434C70.7505 19.6438 70.2144 18.2718 69.5458 17.1788C69.2147 16.6377 68.8652 16.1883 68.5601 15.8817C68.4069 15.7278 68.2757 15.6207 68.1735 15.5558C68.0588 15.4829 68.0329 15.4961 68.0769 15.4961V14.4267C68.3347 14.4267 68.5695 14.5402 68.7473 14.6532C68.9375 14.7742 69.1304 14.9387 69.3182 15.1273C69.6949 15.5058 70.094 16.0256 70.4581 16.6207C71.1797 17.8004 71.82 19.3694 71.82 20.8434H70.7505ZM74.3059 17.1344C75.1531 16.8167 76.4053 16.8444 77.1675 17.8627C77.9044 18.847 78.0076 20.548 77.1398 23.1514L76.1252 22.8132C76.9685 20.2833 76.7153 19.0432 76.3114 18.5036C75.9329 17.9979 75.2601 17.9187 74.6814 18.1357L74.3059 17.1344ZM77.0106 22.6042L80.219 25.8126L79.4628 26.5688L76.2544 23.3604L77.0106 22.6042ZM79.8409 26.1907C80.1391 26.6345 80.1393 26.6345 80.1394 26.6344C80.1394 26.6344 80.1395 26.6343 80.1395 26.6343C80.1397 26.6342 80.1397 26.6341 80.1398 26.6341C80.1399 26.634 80.1399 26.634 80.1399 26.6341C80.1397 26.6342 80.1391 26.6346 80.1382 26.6352C80.1363 26.6365 80.1329 26.6389 80.128 26.6422C80.1184 26.649 80.1031 26.6598 80.0833 26.6743C80.0435 26.7034 79.9859 26.747 79.918 26.8025C79.7803 26.915 79.6101 27.0687 79.4626 27.2424C79.3107 27.4214 79.2103 27.5896 79.1709 27.7302C79.1374 27.8498 79.1489 27.9352 79.2115 28.0258L78.3314 28.6334C78.0591 28.2389 78.0368 27.8144 78.1411 27.442C78.2394 27.0906 78.4482 26.7848 78.6474 26.5502C78.851 26.3105 79.0737 26.1114 79.2412 25.9745C79.3259 25.9052 79.3989 25.8499 79.4516 25.8113C79.4781 25.792 79.4995 25.7767 79.515 25.7659C79.5228 25.7605 79.529 25.7562 79.5337 25.753C79.536 25.7514 79.5379 25.7501 79.5394 25.7491C79.5402 25.7486 79.5408 25.7481 79.5414 25.7477C79.5416 25.7476 79.5419 25.7474 79.5421 25.7473C79.5422 25.7472 79.5423 25.7471 79.5424 25.7471C79.5425 25.747 79.5427 25.7469 79.8409 26.1907ZM79.2115 28.0258C79.2605 28.0968 79.3971 28.2466 79.6405 28.4816C79.8724 28.7055 80.1701 28.9775 80.5109 29.2836C81.1869 29.8908 82.0308 30.6308 82.8077 31.3487C83.5811 32.0632 84.3203 32.7847 84.7867 33.3646C85.0107 33.6432 85.2188 33.9451 85.3072 34.2286C85.3521 34.3727 85.3891 34.5839 85.3067 34.8028C85.2142 35.0488 85.0166 35.189 84.8226 35.2537L84.4844 34.2391C84.4507 34.2503 84.3528 34.3011 84.3058 34.4262C84.2689 34.5241 84.2973 34.5826 84.2861 34.5467C84.2623 34.4701 84.1682 34.3021 83.9533 34.0348C83.5418 33.5231 82.8558 32.8491 82.082 32.1342C81.3118 31.4225 80.4864 30.6992 79.7962 30.0792C79.4539 29.7717 79.1442 29.489 78.8977 29.2511C78.6628 29.0242 78.4498 28.805 78.3314 28.6334L79.2115 28.0258ZM84.8226 35.2537C84.0495 35.5113 83.0021 35.4454 82.0841 35.3014C81.1415 35.1535 80.2302 34.9051 79.6718 34.7189L80.01 33.7044C80.5211 33.8747 81.3744 34.1075 82.2498 34.2448C83.1499 34.386 83.974 34.4092 84.4844 34.2391L84.8226 35.2537ZM80.1375 33.7667L83.3459 35.9056L82.7527 36.7955L79.5443 34.6566L80.1375 33.7667ZM82.6712 35.9724L84.2754 34.3683L85.0316 35.1245L83.4274 36.7287L82.6712 35.9724ZM83.4942 36.0539C83.8967 36.6576 84.2937 37.6664 84.0509 38.6928C83.794 39.7785 82.8739 40.6887 81.04 41.1471L80.7807 40.1096C82.3691 39.7125 82.8749 39.0185 83.0102 38.4466C83.1595 37.8153 82.9149 37.1129 82.6043 36.6472L83.4942 36.0539ZM81.04 41.1471C79.2891 41.5849 77.9832 41.6837 77.0486 41.6162C76.5813 41.5825 76.1997 41.5067 75.8986 41.4064C75.6078 41.3094 75.356 41.1775 75.185 41.0065L75.9412 40.2503C75.941 40.2501 75.9602 40.2685 76.0128 40.2974C76.0635 40.3254 76.1368 40.3585 76.2368 40.3918C76.4371 40.4586 76.7284 40.5209 77.1255 40.5496C77.9198 40.6069 79.1093 40.5275 80.7807 40.1096L81.04 41.1471ZM81.4291 40.4987C81.6187 41.2572 81.7665 42.4347 81.57 43.5055C81.3723 44.5831 80.7865 45.6902 79.411 45.9653L79.2013 44.9166C79.9647 44.7639 80.3593 44.1777 80.5181 43.3125C80.6781 42.4404 80.5585 41.4255 80.3916 40.7581L81.4291 40.4987ZM79.411 45.9653C77.7565 46.2962 76.6347 45.1988 75.962 44.4269C75.7936 44.2337 75.6278 44.0299 75.504 43.8838C75.3669 43.7221 75.273 43.6211 75.2049 43.5645C75.1109 43.4865 75.1917 43.5966 75.3685 43.5586C75.5607 43.5173 75.5785 43.3679 75.5242 43.5023L74.5326 43.1017C74.6119 42.9052 74.7801 42.5912 75.1436 42.5131C75.4917 42.4382 75.7646 42.6393 75.8878 42.7415C76.0369 42.8652 76.1854 43.0337 76.3198 43.1924C76.4676 43.3667 76.6025 43.5341 76.7683 43.7243C77.4325 44.4865 78.1822 45.1204 79.2013 44.9166L79.411 45.9653ZM75.5625 43.2775C75.6479 45.1395 75.7911 48.3961 74.7971 51.3298C74.297 52.806 73.5024 54.2223 72.2506 55.3413C70.9948 56.464 69.3088 57.2605 67.0737 57.5398L66.9411 56.4786C68.9838 56.2233 70.4608 55.5069 71.5379 54.544C72.6189 53.5776 73.3271 52.3358 73.7842 50.9867C74.7047 48.2699 74.5805 45.2076 74.4942 43.3265L75.5625 43.2775ZM75.2207 41.0392C74.6283 40.5454 73.9123 39.6402 73.8789 38.5459C73.8434 37.3803 74.5793 36.2446 76.3934 35.3376L76.8717 36.2941C75.2635 37.0982 74.9299 37.9232 74.9479 38.5133C74.968 39.1746 75.4284 39.8201 75.9054 40.2176L75.2207 41.0392ZM76.3934 35.3376C76.589 35.2397 76.7552 35.1496 76.8948 35.067L77.4397 35.9872C77.274 36.0853 77.0849 36.1875 76.8717 36.2941L76.3934 35.3376ZM77.1673 35.5271C76.8483 35.9562 76.8483 35.9562 76.8483 35.9563C76.8483 35.9563 76.8483 35.9563 76.8483 35.9563C76.8483 35.9562 76.8482 35.9562 76.8481 35.9561C76.8478 35.9559 76.8474 35.9556 76.8467 35.9551C76.8455 35.9541 76.8434 35.9526 76.8407 35.9506C76.8351 35.9465 76.8266 35.9402 76.8152 35.9319C76.7925 35.9153 76.7586 35.8907 76.7145 35.859C76.6263 35.7957 76.4978 35.7047 76.3383 35.5953C76.0189 35.3762 75.5778 35.0848 75.0892 34.7942C74.599 34.5027 74.0703 34.2176 73.5744 34.007C73.0653 33.7908 72.6451 33.6769 72.3547 33.6769V32.6075C72.8664 32.6075 73.4488 32.7917 73.9925 33.0227C74.5493 33.2592 75.1235 33.5703 75.6359 33.875C76.1499 34.1807 76.6111 34.4855 76.9434 34.7135C77.1098 34.8277 77.2445 34.923 77.338 34.9902C77.3848 35.0237 77.4214 35.0503 77.4464 35.0686C77.459 35.0778 77.4687 35.0849 77.4754 35.0898C77.4787 35.0923 77.4813 35.0942 77.4831 35.0956C77.484 35.0963 77.4847 35.0968 77.4853 35.0972C77.4855 35.0974 77.4857 35.0975 77.4859 35.0977C77.486 35.0977 77.4861 35.0978 77.4861 35.0978C77.4862 35.0979 77.4863 35.0979 77.1673 35.5271ZM72.833 32.903C73.2982 33.8335 73.2881 34.7187 72.9285 35.4042C72.5756 36.0769 71.9088 36.5048 71.1849 36.55C70.4429 36.5964 69.6956 36.2393 69.1972 35.4607C68.7093 34.6983 68.474 33.5623 68.6138 32.0243L69.6789 32.1211C69.5513 33.5241 69.7839 34.3933 70.098 34.8842C70.4018 35.3589 70.7907 35.5031 71.1182 35.4827C71.4638 35.4611 71.7996 35.2539 71.9814 34.9074C72.1566 34.5735 72.2133 34.055 71.8764 33.3813L72.833 32.903ZM69.5998 32.3561C67.0587 36.4219 67.8507 41.4037 69.073 45.2373C69.6804 47.1422 70.3773 48.7151 70.7901 49.72C70.8923 49.9689 70.9801 50.1904 71.0433 50.3729C71.0989 50.5337 71.1613 50.7333 71.1648 50.9066C71.1662 50.9764 71.1651 51.2051 70.9792 51.3841C70.7557 51.5991 70.4853 51.5498 70.3815 51.5186C70.2687 51.4848 70.1719 51.4251 70.1042 51.3789C70.0291 51.3276 69.9497 51.2645 69.8678 51.1942L70.5638 50.3822C70.6298 50.4388 70.6766 50.4747 70.7075 50.4958C70.7457 50.522 70.7346 50.508 70.6888 50.4943C70.652 50.4832 70.43 50.4283 70.2376 50.6134C70.1558 50.6921 70.1223 50.7784 70.1086 50.8299C70.0953 50.8802 70.0953 50.9171 70.0956 50.9285C70.0959 50.946 70.0927 50.8962 70.0326 50.7226C69.9801 50.5707 69.9021 50.3729 69.8008 50.1263C69.3995 49.1491 68.6785 47.5204 68.0541 45.5622C66.813 41.6697 65.8867 36.2792 68.6929 31.7893L69.5998 32.3561ZM69.8678 51.1942C65.9043 47.797 62.7195 38.9866 66.4925 25.5118L67.5223 25.8002C63.8091 39.0618 67.041 47.3627 70.5638 50.3822L69.8678 51.1942ZM73.5933 45.4135C73.1289 45.5683 72.7043 45.342 72.4177 45.1191C72.1121 44.8815 71.8115 44.5331 71.5277 44.148C70.9556 43.3718 70.3637 42.3238 69.8453 41.3547C69.3146 40.3626 68.8716 39.4748 68.5627 38.9389C68.4873 38.8079 68.427 38.7109 68.3814 38.6456C68.3586 38.6129 68.3446 38.5957 68.3387 38.589C68.3273 38.5761 68.3487 38.6045 68.3999 38.6354C68.4397 38.6595 68.644 38.7696 68.8824 38.6425C69.0865 38.5338 69.1237 38.3451 69.1261 38.3346C69.1375 38.2837 69.1252 38.2875 69.1422 38.4231L68.081 38.5558C68.0648 38.4261 68.0486 38.2521 68.0825 38.1007C68.0961 38.0399 68.1513 37.8203 68.3795 37.6987C68.642 37.5588 68.8768 37.6741 68.953 37.7201C69.0405 37.773 69.1042 37.8401 69.1407 37.8815C69.1827 37.9292 69.2222 37.9817 69.2581 38.0331C69.3299 38.1359 69.4081 38.264 69.4894 38.4049C69.8073 38.9567 70.2832 39.906 70.7883 40.8502C71.3057 41.8174 71.8664 42.805 72.3886 43.5135C72.6518 43.8706 72.8837 44.1268 73.0741 44.2748C73.2835 44.4376 73.3183 44.3778 73.2551 44.3989L73.5933 45.4135ZM69.1422 38.4231C69.4049 40.5251 69.9312 42.7615 70.5876 44.6651C71.2525 46.5932 72.0228 48.096 72.7328 48.8059L71.9766 49.5622C71.0824 48.6679 70.2485 46.9624 69.5766 45.0137C68.8962 43.0405 68.353 40.7317 68.081 38.5558L69.1422 38.4231ZM71.8359 49.0544L72.9054 44.7765L73.9429 45.0359L72.8735 49.3137L71.8359 49.0544ZM67.1371 25.1372L69.276 25.6719L69.0166 26.7095L66.8777 26.1747L67.1371 25.1372ZM68.6276 26.3204L68.0928 24.1815L69.1304 23.9221L69.6651 26.061L68.6276 26.3204ZM68.6116 23.5171C69.0865 23.5171 69.8089 23.5728 70.4306 23.7518C70.7389 23.8406 71.063 23.971 71.3205 24.1706C71.5876 24.3778 71.82 24.6929 71.82 25.1213H70.7505C70.7505 25.1121 70.7494 25.1066 70.7434 25.0963C70.7354 25.0823 70.7144 25.054 70.6652 25.0158C70.5606 24.9347 70.3834 24.8512 70.1346 24.7795C69.6423 24.6377 69.0279 24.5865 68.6116 24.5865V23.5171ZM71.82 25.1213C71.82 25.1724 71.8237 25.1795 71.8198 25.1612C71.8179 25.1521 71.8098 25.1162 71.7858 25.0697C71.7633 25.0263 71.705 24.9315 71.5826 24.8656C71.2675 24.6959 71.0242 24.9186 71.0102 24.9318C70.968 24.9715 70.956 25.0005 70.9682 24.9785C71.0128 24.8984 71.0996 24.6596 71.162 24.348C71.2239 24.0384 71.2429 23.7473 71.2098 23.5599C71.1934 23.4666 71.1726 23.45 71.1856 23.4653C71.1951 23.4765 71.2133 23.4926 71.2395 23.5046C71.2517 23.5101 71.2628 23.5134 71.2716 23.5153C71.2758 23.5161 71.2792 23.5166 71.2816 23.5168C71.2828 23.5169 71.2837 23.517 71.2843 23.517C71.2846 23.5171 71.2849 23.5171 71.285 23.5171C71.2852 23.5171 71.2853 23.5171 71.2853 23.5171V22.4476C71.5723 22.4476 71.8223 22.5639 71.999 22.7709C72.1583 22.9575 72.2294 23.1832 72.263 23.374C72.3302 23.7547 72.2824 24.1988 72.2107 24.5577C72.1393 24.9145 72.0257 25.2773 71.9031 25.4979C71.8735 25.5512 71.8218 25.6365 71.7436 25.7102C71.6935 25.7573 71.4179 25.9915 71.0756 25.8072C70.9397 25.734 70.8691 25.6253 70.8359 25.5611C70.801 25.4938 70.7837 25.4301 70.7742 25.3858C70.7551 25.297 70.7505 25.2038 70.7505 25.1213H71.82ZM75.3567 22.0255L80.1692 25.7686L79.5126 26.6128L74.7001 22.8697L75.3567 22.0255ZM67.8599 15.4501L59.0076 11.5197L59.4416 10.5423L68.2939 14.4727L67.8599 15.4501ZM59.5444 10.6024L68.3966 17.2065L67.7571 18.0636L58.9049 11.4596L59.5444 10.6024ZM68.455 18.0132C66.231 20.2371 61.6601 27.3048 61.6601 37.42H60.5907C60.5907 27.0017 65.2884 19.6673 67.6988 17.2569L68.455 18.0132ZM61.6601 37.42C61.6601 47.53 66.4044 55.1408 67.4523 56.7126L66.5625 57.3059C65.4715 55.6693 60.5907 47.8436 60.5907 37.42H61.6601ZM65.384 26.8676C64.6885 29.3886 64.1316 33.7912 64.4926 38.4616C64.854 43.1376 66.1292 48.0022 69.0244 51.5178L68.1988 52.1976C65.105 48.4409 63.7957 43.3239 63.4263 38.544C63.0565 33.7587 63.6225 29.2313 64.353 26.5832L65.384 26.8676ZM68.9897 52.2358L66.3161 54.9094L65.5598 54.1532L68.2335 51.4796L68.9897 52.2358ZM65.6913 55.0058C65.4434 54.8769 65.2456 54.6454 65.0883 54.4138C64.9222 54.1695 64.7602 53.8626 64.6028 53.5112C64.2876 52.8071 63.9686 51.8725 63.6659 50.7807C63.0595 48.5941 62.5039 45.7245 62.1752 42.6912C61.8466 39.6591 61.7426 36.4438 62.049 33.5701C62.3535 30.7132 63.0713 28.1159 64.4509 26.3914L65.2861 27.0595C64.099 28.5433 63.41 30.8923 63.1124 33.6835C62.8166 36.4579 62.9151 39.5924 63.2384 42.576C63.5616 45.5584 64.1073 48.3704 64.6965 50.495C64.9914 51.5588 65.2938 52.4373 65.5789 53.0742C65.7218 53.3933 65.8547 53.6389 65.9729 53.8128C66.0316 53.8993 66.0821 53.9611 66.1229 54.0031C66.1649 54.0464 66.1862 54.0577 66.1846 54.0569L65.6913 55.0058ZM71.2853 20.8434C71.6154 20.4228 71.6154 20.4228 71.6154 20.4227C71.6154 20.4228 71.6153 20.4227 71.6154 20.4227C71.6154 20.4227 71.6154 20.4228 71.6154 20.4228C71.6155 20.4229 71.6158 20.4231 71.616 20.4233C71.6166 20.4238 71.6176 20.4245 71.619 20.4256C71.6217 20.4277 71.6259 20.4309 71.6315 20.4353C71.6427 20.444 71.6596 20.4571 71.6817 20.4741C71.7259 20.508 71.7908 20.5574 71.8723 20.6183C72.0356 20.7403 72.2645 20.9077 72.527 21.0891C73.0617 21.4587 73.7003 21.8618 74.201 22.0728L73.7856 23.0583C73.1761 22.8014 72.4607 22.3434 71.9189 21.9689C71.6432 21.7783 71.4033 21.6029 71.2322 21.4751C71.1466 21.4111 71.078 21.3589 71.0305 21.3224C71.0067 21.3041 70.9882 21.2898 70.9755 21.2799C70.9691 21.275 70.9642 21.2712 70.9608 21.2685C70.9591 21.2672 70.9577 21.2661 70.9568 21.2654C70.9563 21.265 70.9559 21.2647 70.9557 21.2645C70.9555 21.2644 70.9554 21.2643 70.9553 21.2642C70.9553 21.2642 70.9552 21.2641 70.9552 21.2641C70.9551 21.2641 70.9551 21.2641 71.2853 20.8434ZM74.0552 23.0967C73.2693 23.1884 72.4253 23.2919 71.8658 23.3721C71.5752 23.4137 71.3918 23.445 71.3254 23.4617C71.2999 23.4681 71.3342 23.462 71.3824 23.4379C71.3976 23.4303 71.4298 23.4133 71.4666 23.3846C71.4958 23.3618 71.5774 23.2942 71.6284 23.172C71.6942 23.0141 71.6809 22.8304 71.5856 22.6813C71.5118 22.566 71.4156 22.5131 71.3815 22.4957C71.3083 22.4583 71.246 22.4495 71.2439 22.4492C71.2284 22.4465 71.2197 22.4461 71.2229 22.4463C71.2285 22.4467 71.2472 22.4476 71.2853 22.4476V23.5171C71.2368 23.5171 71.1887 23.5161 71.1458 23.513C71.1247 23.5115 71.0964 23.5089 71.0656 23.5037C71.0482 23.5007 70.975 23.4889 70.8953 23.4482C70.8579 23.4291 70.7594 23.3745 70.6845 23.2573C70.588 23.1063 70.5745 22.9207 70.6412 22.7607C70.693 22.6364 70.7765 22.5666 70.8085 22.5416C70.8482 22.5106 70.8843 22.4913 70.9044 22.4813C70.972 22.4475 71.0413 22.4303 71.0651 22.4244C71.1958 22.3916 71.4378 22.353 71.7141 22.3134C72.2885 22.2311 73.1445 22.1262 73.9313 22.0344L74.0552 23.0967ZM76.0874 40.7333L75.5786 43.2774L74.5299 43.0677L75.0387 40.5235L76.0874 40.7333ZM75.5214 43.4327C75.5612 43.3612 75.5636 43.3003 75.5625 43.2775L74.4942 43.3265C74.4884 43.2 74.5087 43.0531 74.5871 42.9124L75.5214 43.4327ZM75.5786 43.2774L75.5527 43.4069L74.504 43.1972L74.5299 43.0677L75.5786 43.2774ZM73.9313 22.0344C74.3037 21.991 74.6619 21.9503 74.9693 21.9162L75.0874 22.9791C74.7819 23.013 74.4256 23.0535 74.0552 23.0967L73.9313 22.0344ZM78.906 45.7957C78.3688 45.1896 77.4394 44.5242 76.5958 44.0754C76.1748 43.8514 75.8058 43.698 75.5435 43.63C75.4084 43.595 75.3377 43.5924 75.3172 43.5941C75.2913 43.5962 75.4332 43.5911 75.5214 43.4327L74.5871 42.9124C74.75 42.6199 75.0436 42.5433 75.2307 42.5281C75.4233 42.5125 75.627 42.5468 75.8118 42.5947C76.1892 42.6925 76.6418 42.8885 77.0981 43.1313C78.0089 43.6158 79.0562 44.3528 79.7063 45.0862L78.906 45.7957ZM75.5558 22.5355C75.5231 22.732 75.4327 22.9298 75.2545 23.0756C75.0827 23.2163 74.8845 23.2632 74.7187 23.2719C74.4086 23.2883 74.0716 23.1789 73.7856 23.0583L74.201 22.0728C74.3206 22.1232 74.4232 22.1587 74.5075 22.1802C74.5948 22.2025 74.6438 22.2049 74.6622 22.204C74.6792 22.2031 74.6338 22.2017 74.5771 22.2481C74.5492 22.271 74.5287 22.2976 74.5156 22.3222C74.5031 22.3456 74.5008 22.3606 74.5009 22.3597L75.5558 22.5355Z" fill="#FFA553"/>
<path d="M76.8716 26.7819C77.1358 26.9139 77.2429 27.2351 77.1108 27.4993C76.9787 27.7634 76.6575 27.8705 76.3934 27.7384L76.8716 26.7819ZM74.4936 26.1907L74.0487 26.4873C73.9142 26.2855 73.9323 26.0186 74.0927 25.8368C74.2532 25.655 74.5159 25.604 74.7327 25.7124L74.4936 26.1907ZM71.6214 28.2913C71.3472 28.1817 71.2138 27.8705 71.3235 27.5963C71.4331 27.3221 71.7443 27.1887 72.0185 27.2984L71.6214 28.2913ZM74.9744 27.09L75.4675 26.8831L75.4675 26.8831L74.9744 27.09ZM76.3934 27.7384L74.2545 26.6689L74.7327 25.7124L76.8716 26.7819L76.3934 27.7384ZM74.4936 26.1907C74.9385 25.8941 74.9385 25.8941 74.9386 25.8941C74.9386 25.8942 74.9386 25.8942 74.9386 25.8942C74.9387 25.8943 74.9387 25.8944 74.9388 25.8945C74.9389 25.8946 74.939 25.8948 74.9392 25.8951C74.9395 25.8955 74.9398 25.896 74.9402 25.8967C74.9411 25.8979 74.9422 25.8996 74.9436 25.9017C74.9463 25.9059 74.9501 25.9116 74.9547 25.9188C74.9641 25.9333 74.9772 25.9538 74.9934 25.9795C75.0257 26.031 75.0703 26.1041 75.1216 26.193C75.2232 26.3692 75.355 26.615 75.4675 26.8831L74.4813 27.2969C74.392 27.0842 74.2834 26.8804 74.1951 26.7271C74.1514 26.6513 74.1136 26.5897 74.0873 26.5476C74.0741 26.5267 74.0639 26.5107 74.0572 26.5004C74.0539 26.4952 74.0514 26.4915 74.05 26.4893C74.0493 26.4882 74.0488 26.4875 74.0486 26.4871C74.0484 26.4869 74.0484 26.4869 74.0484 26.4869C74.0484 26.4869 74.0485 26.487 74.0485 26.487C74.0485 26.4871 74.0485 26.4871 74.0486 26.4871C74.0486 26.4872 74.0486 26.4872 74.0486 26.4872C74.0486 26.4872 74.0487 26.4873 74.4936 26.1907ZM75.4675 26.8831C75.5728 27.1341 75.6743 27.4349 75.704 27.731C75.7327 28.0178 75.7032 28.411 75.4064 28.7077L74.6502 27.9515C74.6151 27.9866 74.6551 27.9902 74.6398 27.8377C74.6255 27.6946 74.5692 27.5064 74.4813 27.2969L75.4675 26.8831ZM75.4064 28.7077C75.2057 28.9085 74.9426 28.9755 74.7418 28.9998C74.5299 29.0254 74.3002 29.0137 74.0809 28.9867C73.6403 28.9324 73.1483 28.8039 72.7336 28.6777L73.0452 27.6546C73.439 27.7745 73.8621 27.8822 74.2117 27.9252C74.3875 27.9469 74.5216 27.9492 74.6133 27.9381C74.7162 27.9256 74.6966 27.9051 74.6502 27.9515L75.4064 28.7077ZM72.7336 28.6777C72.4263 28.5841 72.1496 28.488 71.9501 28.4155C71.8501 28.3791 71.7689 28.3485 71.7123 28.3268C71.684 28.3159 71.6618 28.3073 71.6464 28.3012C71.6387 28.2982 71.6327 28.2958 71.6285 28.2942C71.6264 28.2933 71.6247 28.2927 71.6235 28.2922C71.6229 28.292 71.6225 28.2918 71.6221 28.2916C71.6219 28.2916 71.6218 28.2915 71.6216 28.2915C71.6216 28.2914 71.6215 28.2914 71.6215 28.2914C71.6215 28.2914 71.6214 28.2914 71.6214 28.2914C71.6214 28.2914 71.6214 28.2913 71.8199 27.7949C72.0185 27.2984 72.0185 27.2984 72.0185 27.2984C72.0185 27.2984 72.0185 27.2983 72.0185 27.2983C72.0184 27.2983 72.0184 27.2983 72.0184 27.2983C72.0184 27.2983 72.0184 27.2983 72.0185 27.2984C72.0186 27.2984 72.0188 27.2985 72.0191 27.2986C72.0198 27.2989 72.0209 27.2993 72.0224 27.2999C72.0255 27.3011 72.0304 27.3031 72.0369 27.3056C72.0499 27.3107 72.0697 27.3184 72.0954 27.3283C72.1468 27.348 72.222 27.3764 72.3154 27.4103C72.5026 27.4784 72.7607 27.568 73.0452 27.6546L72.7336 28.6777ZM75.4475 27.3392C75.1922 27.8239 74.3789 28.5518 72.9436 28.6981L72.8352 27.6341C73.9666 27.5189 74.4361 26.9646 74.5013 26.8408L75.4475 27.3392Z" fill="#FFA553"/>
<path d="M43.339 15.9735C46.9038 15.9735 53.2032 15.7103 57.9088 12.2881L64.8603 18.1701C60.4042 23.1609 54.1657 38.062 64.8603 57.74L42.9364 69.5041L19.9431 57.74M43.3397 18.5513C48.1522 18.5513 52.5616 18.1701 57.3741 15.4965L61.1172 19.2396C57.5524 25.2998 53.0963 36.3509 60.5825 56.1358" stroke="#FFA553" stroke-width="1.60419" stroke-linecap="square"/>
<path d="M41.8353 15.9733C38.2705 15.9733 31.5989 15.7101 26.8933 12.2878L19.9418 18.1699C24.3979 23.1607 30.6364 38.0618 19.9418 57.7398M41.839 18.549C37.0265 18.549 32.2406 18.1699 27.428 15.4962L23.6849 19.2393C27.2498 25.2996 31.7059 36.3506 24.2197 56.1356L42.9352 66.2954L60.5812 56.1356" stroke="#FFA553" stroke-width="1.60419" stroke-linecap="square"/>
<path d="M42.5775 1.53809C42.5775 1.53809 46.4652 7.19288 48.9391 7.19288C51.4131 7.19288 56.8912 2.95178 56.8912 2.95178L53.7104 10.0203C48.0678 13.5545 36.9227 13.5545 31.4446 10.0203L28.2638 2.95178C28.2638 2.95178 33.7419 7.19288 36.2158 7.19288C38.6898 7.19288 42.5775 1.53809 42.5775 1.53809Z" stroke="#FFA553" stroke-width="2.12055" stroke-linecap="round" stroke-linejoin="round"/>
<path d="M53.7693 38.2387C53.3821 37.7247 51.9438 37.3708 51.3353 36.4459C50.7268 35.521 50.2287 33.518 48.6799 32.7484C47.1312 31.9787 44.171 31.7627 42.4807 31.7627C40.7904 31.7627 37.8324 31.974 36.2815 32.7468C34.7306 33.5196 34.2346 35.521 33.6261 36.4443C33.0176 37.3677 31.5793 37.7247 31.1921 38.2387C30.8049 38.7526 30.5323 42.0017 30.6982 43.5948C30.8641 45.188 31.1736 46.1303 31.1736 46.1303H35.7163C36.46 46.1303 36.702 45.8509 38.2232 45.7077C39.8924 45.5493 41.5299 45.4964 42.4807 45.4964C43.4315 45.4964 45.1218 45.5493 46.7899 45.7077C48.3112 45.8519 48.5611 46.1303 49.2969 46.1303H53.7867C53.7867 46.1303 54.0963 45.188 54.2621 43.5948C54.428 42.0017 54.1544 38.7526 53.7693 38.2387Z" stroke="#FFA553" stroke-width="1.69031" stroke-linecap="round" stroke-linejoin="round"/>
<path d="M50.0867 46.1304H53.0447V46.9755H50.0867V46.1304Z" stroke="#FFA553" stroke-width="1.69031" stroke-linecap="round" stroke-linejoin="round"/>
<path d="M31.9157 46.1304H34.8737V46.9755H31.9157V46.1304Z" stroke="#FFA553" stroke-width="1.69031" stroke-linecap="round" stroke-linejoin="round"/>
<path d="M36.7503 42.4797C37.0625 42.8405 38.0798 43.1416 39.4268 43.3433C40.7738 43.5451 41.265 43.5974 42.4694 43.5974C43.6737 43.5974 44.2215 43.5108 45.5124 43.3433C46.8034 43.1759 47.7727 42.878 48.1884 42.4797C48.8122 41.8754 47.8984 41.1972 47.1811 41.1148C46.4859 41.0355 45.0962 41.0646 42.4635 41.0646C39.8309 41.0646 38.4411 41.0355 37.746 41.1148C37.0297 41.2019 36.1814 41.8332 36.7503 42.4797Z" fill="#FFA553"/>
<path d="M51.7543 38.6852C51.7514 38.6433 51.733 38.6039 51.7028 38.5747C51.6726 38.5454 51.6326 38.5284 51.5906 38.5268C50.9668 38.5046 50.3334 38.549 49.2099 38.8802C48.6367 39.0475 48.0984 39.317 47.621 39.6757C47.5006 39.7697 47.5434 40.0238 47.6944 40.0507C48.6205 40.1593 49.5521 40.214 50.4845 40.2144C51.0439 40.2144 51.6212 40.056 51.7284 39.5573C51.7831 39.2698 51.7919 38.9755 51.7543 38.6852V38.6852Z" fill="#FFA553"/>
<path d="M33.2065 38.6852C33.2094 38.6433 33.2278 38.6039 33.258 38.5747C33.2882 38.5454 33.3282 38.5284 33.3702 38.5268C33.9941 38.5046 34.6274 38.549 35.7509 38.8802C36.3241 39.0475 36.8624 39.317 37.3398 39.6757C37.4602 39.7697 37.4175 40.0238 37.2664 40.0507C36.3403 40.1593 35.4087 40.214 34.4763 40.2144C33.9169 40.2144 33.3396 40.056 33.2324 39.5573C33.1777 39.2698 33.169 38.9755 33.2065 38.6852V38.6852Z" fill="#FFA553"/>
<path d="M51.7765 35.9885H52.6216" stroke="#FFA553" stroke-width="1.69031" stroke-linecap="round" stroke-linejoin="round"/>
<path d="M32.3385 35.9885H33.1837" stroke="#FFA553" stroke-width="1.69031" stroke-linecap="round" stroke-linejoin="round"/>
<path d="M33.0785 36.992C33.0785 36.992 35.5268 36.3582 42.4808 36.3582C49.4349 36.3582 51.8832 36.992 51.8832 36.992" stroke="#FFA553" stroke-width="1.69031" stroke-linecap="round" stroke-linejoin="round"/>
</g>
</svg>
