<svg width="45" height="45" viewBox="0 0 45 45" fill="none" xmlns="http://www.w3.org/2000/svg">
<path d="M40.3125 7.50014H35.3125V11.2501C35.3125 11.6113 35.2414 11.9689 35.1032 12.3025C34.965 12.6362 34.7624 12.9393 34.5071 13.1947C34.2517 13.4501 33.9485 13.6526 33.6149 13.7908C33.2812 13.929 32.9237 14.0001 32.5625 14.0001C32.2014 14.0001 31.8438 13.929 31.5101 13.7908C31.1765 13.6526 30.8733 13.4501 30.618 13.1947C30.3626 12.9393 30.16 12.6362 30.0218 12.3025C29.8836 11.9689 29.8125 11.6113 29.8125 11.2501V7.50014H15.25V11.2501C15.25 11.9795 14.9603 12.679 14.4446 13.1947C13.9288 13.7104 13.2294 14.0001 12.5 14.0001C11.7707 14.0001 11.0712 13.7104 10.5555 13.1947C10.0397 12.679 9.75002 11.9795 9.75002 11.2501V7.50014H4.75002C4.45255 7.49676 4.15742 7.55306 3.88208 7.66572C3.60675 7.77838 3.35681 7.94511 3.14703 8.15605C2.93726 8.36699 2.77192 8.61786 2.66078 8.89381C2.54965 9.16976 2.49498 9.4652 2.50002 9.76264V37.7376C2.49505 38.0298 2.5477 38.3202 2.65495 38.592C2.7622 38.8639 2.92196 39.1119 3.12509 39.322C3.32823 39.5321 3.57077 39.7002 3.83885 39.8165C4.10693 39.9329 4.39531 39.9953 4.68752 40.0001H40.3125C40.6047 39.9953 40.8931 39.9329 41.1612 39.8165C41.4293 39.7002 41.6718 39.5321 41.8749 39.322C42.0781 39.1119 42.2378 38.8639 42.3451 38.592C42.4523 38.3202 42.505 38.0298 42.5 37.7376V9.76264C42.505 9.47044 42.4523 9.18012 42.3451 8.90827C42.2378 8.63642 42.0781 8.38836 41.8749 8.17826C41.6718 7.96816 41.4293 7.80013 41.1612 7.68378C40.8931 7.56743 40.6047 7.50503 40.3125 7.50014ZM12.5 32.5001H10V30.0001H12.5V32.5001ZM12.5 26.2501H10V23.7501H12.5V26.2501ZM12.5 20.0001H10V17.5001H12.5V20.0001ZM20 32.5001H17.5V30.0001H20V32.5001ZM20 26.2501H17.5V23.7501H20V26.2501ZM20 20.0001H17.5V17.5001H20V20.0001ZM27.5 32.5001H25V30.0001H27.5V32.5001ZM27.5 26.2501H25V23.7501H27.5V26.2501ZM27.5 20.0001H25V17.5001H27.5V20.0001ZM35 32.5001H32.5V30.0001H35V32.5001ZM35 26.2501H32.5V23.7501H35V26.2501ZM35 20.0001H32.5V17.5001H35V20.0001Z" fill="#FFA553"/>
<path d="M12.5 12.5C12.8315 12.5 13.1495 12.3683 13.3839 12.1339C13.6183 11.8995 13.75 11.5815 13.75 11.25V3.75C13.75 3.41848 13.6183 3.10054 13.3839 2.86612C13.1495 2.6317 12.8315 2.5 12.5 2.5C12.1685 2.5 11.8505 2.6317 11.6161 2.86612C11.3817 3.10054 11.25 3.41848 11.25 3.75V11.25C11.25 11.5815 11.3817 11.8995 11.6161 12.1339C11.8505 12.3683 12.1685 12.5 12.5 12.5Z" fill="#FFA553"/>
<path d="M32.5 12.5C32.8315 12.5 33.1495 12.3683 33.3839 12.1339C33.6183 11.8995 33.75 11.5815 33.75 11.25V3.75C33.75 3.41848 33.6183 3.10054 33.3839 2.86612C33.1495 2.6317 32.8315 2.5 32.5 2.5C32.1685 2.5 31.8505 2.6317 31.6161 2.86612C31.3817 3.10054 31.25 3.41848 31.25 3.75V11.25C31.25 11.5815 31.3817 11.8995 31.6161 12.1339C31.8505 12.3683 32.1685 12.5 32.5 12.5Z" fill="#FFA553"/>
</svg>
