<svg width="30" height="28" viewBox="0 0 30 28" fill="none" xmlns="http://www.w3.org/2000/svg">
<path d="M27.1381 24.0115C26.9626 23.2236 25.8804 21.7266 23.8915 19.5205C21.9026 17.3143 19.4409 14.8937 16.5063 12.2586C13.5717 9.62345 10.876 7.41293 8.41912 5.627C5.96226 3.84107 4.29511 2.86932 3.41766 2.71173C5.05556 1.34602 7.09807 0.523096 9.54518 0.242951C11.9923 -0.0371947 14.532 0.264837 17.1644 1.14905C19.7967 2.03326 22.161 3.41647 24.2571 5.2987C26.3532 7.18093 27.8936 9.30391 28.8783 11.6676C29.863 14.0314 30.1994 16.3119 29.8874 18.5093C29.5754 20.7067 28.659 22.5408 27.1381 24.0115ZM13.4937 14.9637C16.4283 17.5988 19.124 19.8094 21.5809 21.5953C24.0377 23.3812 25.7049 24.353 26.5823 24.5106C24.9444 25.8763 22.9019 26.6992 20.4548 26.9793C18.0077 27.2595 15.468 26.9575 12.8356 26.0732C10.2033 25.189 7.83903 23.8058 5.7429 21.9236C3.64677 20.0414 2.10636 17.9184 1.12166 15.5547C0.136969 13.1909 -0.199387 10.9104 0.112595 8.71298C0.424577 6.51558 1.34103 4.68151 2.86194 3.21074C3.03743 3.99865 4.11962 5.49568 6.10851 7.70183C8.09739 9.90797 10.5591 12.3286 13.4937 14.9637Z" fill="#FFA553"/>
</svg>
