<svg width="33" height="33" viewBox="0 0 33 33" fill="none" xmlns="http://www.w3.org/2000/svg">
<path d="M16.1461 8.00049C13.9849 8.00049 11.9121 8.85904 10.3839 10.3873C8.85568 11.9155 7.99713 13.9882 7.99713 16.1495C7.99713 18.3107 8.85568 20.3834 10.3839 21.9116C11.9121 23.4399 13.9849 24.2984 16.1461 24.2984C18.3073 24.2984 20.3801 23.4399 21.9083 21.9116C23.4365 20.3834 24.2951 18.3107 24.2951 16.1495C24.2951 13.9882 23.4365 11.9155 21.9083 10.3873C20.3801 8.85904 18.3073 8.00049 16.1461 8.00049ZM16.1461 21.4417C14.742 21.4417 13.3955 20.8839 12.4027 19.8911C11.4098 18.8983 10.8521 17.5517 10.8521 16.1477C10.8521 14.7436 11.4098 13.3971 12.4027 12.4043C13.3955 11.4114 14.742 10.8537 16.1461 10.8537C17.5502 10.8537 18.8967 11.4114 19.8895 12.4043C20.8823 13.3971 21.4401 14.7436 21.4401 16.1477C21.4401 17.5517 20.8823 18.8983 19.8895 19.8911C18.8967 20.8839 17.5502 21.4417 16.1461 21.4417Z" fill="white"/>
<path d="M24.6176 9.60058C25.6668 9.60058 26.5173 8.75002 26.5173 7.7008C26.5173 6.65159 25.6668 5.80103 24.6176 5.80103C23.5683 5.80103 22.7178 6.65159 22.7178 7.7008C22.7178 8.75002 23.5683 9.60058 24.6176 9.60058Z" fill="white"/>
<path d="M31.1857 5.76942C30.7778 4.71587 30.1543 3.75911 29.3553 2.96038C28.5563 2.16166 27.5993 1.53857 26.5456 1.13099C25.3125 0.668133 24.0099 0.417855 22.6931 0.390819C20.996 0.316802 20.4585 0.295654 16.1549 0.295654C11.8513 0.295654 11.2997 0.295654 9.61672 0.390819C8.30095 0.416473 6.99925 0.666801 5.76781 1.13099C4.71384 1.53809 3.75659 2.16102 2.9575 2.9598C2.15842 3.75859 1.53513 4.71559 1.12763 5.76942C0.664676 7.00236 0.414973 8.30511 0.389217 9.62185C0.313437 11.3172 0.290527 11.8547 0.290527 16.16C0.290527 20.4636 0.290527 21.0117 0.389217 22.6983C0.415652 24.0165 0.664139 25.3171 1.12763 26.5524C1.53627 27.6059 2.16016 28.5625 2.95945 29.3612C3.75873 30.1599 4.71582 30.783 5.76958 31.1909C6.99868 31.6723 8.30092 31.9405 9.62024 31.9839C11.3174 32.0579 11.8549 32.0808 16.1584 32.0808C20.462 32.0808 21.0136 32.0808 22.6966 31.9839C24.0133 31.9571 25.3159 31.7075 26.5491 31.2455C27.6025 30.837 28.5592 30.2133 29.3582 29.4144C30.1571 28.6155 30.7807 27.6587 31.1893 26.6053C31.6528 25.3717 31.9012 24.0711 31.9277 22.7529C32.0035 21.0575 32.0264 20.52 32.0264 16.2147C32.0264 11.9093 32.0264 11.363 31.9277 9.67648C31.9072 8.34112 31.6562 7.01934 31.1857 5.76942ZM29.0392 22.5678C29.0279 23.5835 28.8425 24.5896 28.4912 25.5426C28.2265 26.2279 27.8213 26.8503 27.3017 27.3696C26.7821 27.8889 26.1595 28.2937 25.4741 28.558C24.5316 28.9077 23.5361 29.0931 22.531 29.106C20.8568 29.1836 20.3845 29.203 16.0915 29.203C11.7949 29.203 11.3561 29.203 9.6502 29.106C8.64555 29.0937 7.65054 28.9083 6.70889 28.558C6.02104 28.2953 5.39597 27.8913 4.87412 27.3718C4.35228 26.8524 3.94529 26.2293 3.67947 25.5426C3.33308 24.5999 3.14779 23.6056 3.13138 22.6013C3.05561 20.9271 3.03798 20.4548 3.03798 16.1618C3.03798 11.867 3.03798 11.4282 3.13138 9.72053C3.14278 8.70548 3.32816 7.69989 3.67947 6.7475C4.21697 5.35703 5.31842 4.26263 6.70889 3.73041C7.65101 3.38172 8.64573 3.19637 9.6502 3.18233C11.3262 3.10655 11.7967 3.0854 16.0915 3.0854C20.3862 3.0854 20.8268 3.08541 22.531 3.18233C23.5362 3.19443 24.5319 3.37984 25.4741 3.73041C26.1595 3.99524 26.782 4.40045 27.3015 4.92003C27.8211 5.43961 28.2263 6.06209 28.4912 6.7475C28.8375 7.69025 29.0228 8.68457 29.0392 9.68881C29.115 11.3648 29.1344 11.8353 29.1344 16.1301C29.1344 20.4231 29.1344 20.8848 29.0586 22.5696H29.0392V22.5678Z" fill="white"/>
</svg>
