<svg width="23" height="27" viewBox="0 0 23 27" fill="none" xmlns="http://www.w3.org/2000/svg">
<path d="M11.3235 14.75C13.4617 14.75 15.1949 13.0711 15.1949 11C15.1949 8.92893 13.4617 7.25 11.3235 7.25C9.18543 7.25 7.45215 8.92893 7.45215 11C7.45215 13.0711 9.18543 14.75 11.3235 14.75Z" stroke="white" stroke-width="1.5" stroke-linecap="round" stroke-linejoin="round"/>
<path d="M11.3236 1C8.58562 1 5.95977 2.05357 4.02372 3.92893C2.08766 5.8043 1 8.34784 1 11C1 13.365 1.51876 14.9125 2.93568 16.625L11.3236 26L19.7115 16.625C21.1285 14.9125 21.6472 13.365 21.6472 11C21.6472 8.34784 20.5596 5.8043 18.6235 3.92893C16.6875 2.05357 14.0616 1 11.3236 1V1Z" stroke="white" stroke-width="1.5" stroke-linecap="round" stroke-linejoin="round"/>
</svg>
