<svg width="23" height="22" viewBox="0 0 23 22" fill="none" xmlns="http://www.w3.org/2000/svg">
<path d="M9.86343 5.24123L6.37099 1.33625C5.96837 0.886251 5.23024 0.888251 4.76259 1.34225L1.89059 4.12923C1.03581 4.95823 0.791141 6.18922 1.28564 7.17622C4.23983 13.1012 9.17283 17.8862 15.2853 20.7561C16.3032 21.2351 17.573 20.9981 18.4278 20.1691L21.3266 17.3562C21.7963 16.9012 21.7974 16.1822 21.3287 15.7922L17.2819 12.4272C16.8586 12.0752 16.201 12.1212 15.7767 12.5332L14.3686 13.8992C14.2965 13.9724 14.2016 14.0206 14.0985 14.0365C13.9954 14.0524 13.8897 14.0351 13.7977 13.9872C11.496 12.7033 9.58675 10.8514 8.26432 8.62021C8.21479 8.53096 8.19686 8.42844 8.21327 8.32837C8.22968 8.2283 8.27953 8.1362 8.35516 8.06621L9.75916 6.70522C10.1845 6.29122 10.2309 5.65123 9.86343 5.24023V5.24123Z" stroke="white" stroke-width="1.49999" stroke-linecap="round" stroke-linejoin="round"/>
</svg>
