<svg width="31" height="32" viewBox="0 0 31 32" fill="none" xmlns="http://www.w3.org/2000/svg">
<path d="M20.4664 0.947754H11.1336C2.61651 0.947754 0.599976 2.96429 0.599976 11.4814V20.8142C0.599976 29.3312 2.61651 31.3478 11.1336 31.3478H20.4664C28.9834 31.3478 31 29.3312 31 20.8142V11.4814C31 2.96429 28.9619 0.947754 20.4664 0.947754ZM25.1429 22.6369H22.9338C22.0978 22.6369 21.8394 21.9719 20.3372 20.4494C19.0287 19.1827 18.4498 19.0117 18.1281 19.0117C17.6772 19.0117 17.548 19.1409 17.548 19.7628V21.7578C17.548 22.2949 17.377 22.6166 15.9608 22.6166C13.6226 22.6166 11.0259 21.2005 9.20318 18.5608C6.45704 14.7 5.70464 11.8031 5.70464 11.2027C5.70464 10.881 5.83384 10.5808 6.45578 10.5808H8.66484C9.22218 10.5808 9.43751 10.8379 9.65284 11.4383C10.746 14.5923 12.57 17.36 13.3211 17.36C13.5998 17.36 13.729 17.2308 13.729 16.524V13.261C13.6428 11.7588 12.8486 11.6308 12.8486 11.095C12.8486 10.8366 13.064 10.5795 13.406 10.5795H16.8817C17.3542 10.5795 17.5252 10.8366 17.5252 11.394V15.7931C17.5252 16.2643 17.7405 16.4366 17.8684 16.4366C18.1471 16.4366 18.384 16.2643 18.8982 15.75C20.4866 13.9691 21.6228 11.223 21.6228 11.223C21.7736 10.9012 22.0307 10.601 22.5893 10.601H24.7984C25.4634 10.601 25.6141 10.943 25.4634 11.4155C25.1847 12.7037 22.4816 16.5214 22.4816 16.5214C22.246 16.9078 22.1599 17.0788 22.4816 17.5094C22.7172 17.8312 23.4899 18.4962 24.0054 19.0966C24.9491 20.1694 25.6774 21.07 25.8712 21.6932C26.0866 22.3139 25.7636 22.6356 25.1416 22.6356L25.1429 22.6369Z" fill="white"/>
</svg>
