<svg width="53" height="59" viewBox="0 0 53 59" fill="none" xmlns="http://www.w3.org/2000/svg">
<path d="M49.436 23.9249L9.419 0.823875C7.512 -0.276125 5.043 -0.273125 3.143 0.823875C1.205 1.93988 0 4.02488 0 6.26388V52.4689C0 54.7089 1.204 56.7939 3.131 57.9039C4.084 58.4589 5.173 58.7519 6.28 58.7519C7.384 58.7519 8.472 58.4599 9.421 57.9089L49.438 34.8059C51.374 33.6869 52.576 31.6029 52.576 29.3669C52.575 27.1339 51.374 25.0499 49.436 23.9249ZM46.436 29.6119L6.416 52.7159C6.334 52.7629 6.236 52.7679 6.137 52.7109C6.053 52.6619 6 52.5689 6 52.4689V6.26288C6 6.16288 6.052 6.07088 6.14 6.01988C6.182 5.99488 6.23 5.98188 6.279 5.98188C6.33 5.98188 6.378 5.99488 6.421 6.01988L46.431 29.1179C46.52 29.1699 46.576 29.2649 46.576 29.3669C46.575 29.4699 46.523 29.5609 46.436 29.6119Z" fill="white"/>
</svg>
