<svg width="41" height="41" viewBox="0 0 41 41" fill="none" xmlns="http://www.w3.org/2000/svg">
<g clip-path="url(#clip0_0_420)">
<path d="M35.875 14.7184V4.86875C35.8765 4.39783 35.785 3.93125 35.6056 3.4958C35.4263 3.06034 35.1628 2.6646 34.8301 2.33126C34.4975 1.99793 34.1022 1.73359 33.6671 1.5534C33.2321 1.37321 32.7657 1.28072 32.2947 1.28125H22.4507C21.8052 1.28258 21.1863 1.53838 20.7283 1.99315L1.04825 21.6675C0.37705 22.3409 0.000152588 23.2529 0.000152588 24.2036C0.000152588 25.1544 0.37705 26.0663 1.04825 26.7397L10.4174 36.1088C11.0905 36.7802 12.0024 37.1572 12.9531 37.1572C13.9037 37.1572 14.8156 36.7802 15.4887 36.1088L35.1631 16.4408C35.618 15.9829 35.8739 15.3639 35.875 14.7184ZM28.1875 11.5313C27.6807 11.5313 27.1853 11.381 26.7639 11.0994C26.3425 10.8178 26.014 10.4176 25.8201 9.94938C25.6261 9.48114 25.5754 8.96591 25.6743 8.46883C25.7731 7.97176 26.0172 7.51516 26.3756 7.15679C26.7339 6.79842 27.1905 6.55436 27.6876 6.45549C28.1847 6.35662 28.6999 6.40736 29.1682 6.60131C29.6364 6.79526 30.0366 7.1237 30.3182 7.5451C30.5997 7.96651 30.75 8.46194 30.75 8.96875C30.75 9.64837 30.4801 10.3002 29.9995 10.7807C29.5189 11.2613 28.8671 11.5313 28.1875 11.5313Z" fill="#FFA553"/>
<path d="M39.7188 5.125C39.379 5.125 39.0531 5.25999 38.8128 5.50027C38.5725 5.74055 38.4376 6.06644 38.4376 6.40625V16.6058L17.5123 37.5318C17.3884 37.6496 17.2892 37.791 17.2207 37.9477C17.1523 38.1045 17.1159 38.2733 17.1137 38.4443C17.1115 38.6153 17.1436 38.785 17.208 38.9434C17.2724 39.1018 17.3679 39.2457 17.4889 39.3667C17.6098 39.4876 17.7537 39.5831 17.9121 39.6475C18.0705 39.712 18.2402 39.744 18.4112 39.7418C18.5822 39.7397 18.7511 39.7032 18.9078 39.6348C19.0645 39.5663 19.2059 39.4672 19.3237 39.3432L40.3042 18.3627C40.5274 18.1385 40.7038 17.8722 40.8233 17.5793C40.9427 17.2863 41.0028 16.9726 41.0001 16.6562V6.40625C41.0001 6.06644 40.8651 5.74055 40.6248 5.50027C40.3845 5.25999 40.0586 5.125 39.7188 5.125Z" fill="#FFA553"/>
</g>
<defs>
<clipPath id="clip0_0_420">
<rect width="41" height="41" fill="white"/>
</clipPath>
</defs>
</svg>
